<svg id="_674aaa8a5939fb3fb007e77121fb1581" data-name="674aaa8a5939fb3fb007e77121fb1581" xmlns="http://www.w3.org/2000/svg" width="29.295" height="27.841" viewBox="0 0 29.295 27.841">
  <path id="Path_2" data-name="Path 2" d="M7.994,11.38A15.606,15.606,0,0,0,1.955.223,1.179,1.179,0,0,0,.19.717a1.662,1.662,0,0,0,.421,2.07,12.477,12.477,0,0,1,4.834,8.921,1.38,1.38,0,0,0,1.273,1.34,1.118,1.118,0,0,0,.137-.01,1.243,1.243,0,0,0,.863-.552,1.691,1.691,0,0,0,.275-1.107Z" transform="translate(19.762 14.889) rotate(-7)"/>
  <path id="Path_3" data-name="Path 3" d="M34.994,14.8c.009-2.986-2.206-5.691-5.639-6.888A11.294,11.294,0,0,0,19.178,9.29c-2.746,2.032-3.717,5.168-2.472,7.984a1.692,1.692,0,0,0,1.995.769,1.2,1.2,0,0,0,.965-1.589c-.9-2.053-.033-4.336,2.149-5.644a7.6,7.6,0,0,1,7.4-.083c2.227,1.259,3.177,3.521,2.348,5.594S28.319,19.8,25.588,19.8C17.6,19.789,10.881,24.573,10,30.9c-.094.686.527,1.3,1.388,1.379q.084.008.168.008a1.481,1.481,0,0,0,1.556-1.113c.7-5.062,6.073-8.891,12.465-8.881,5.2,0,9.408-3.353,9.413-7.491Z" transform="translate(-9.994 -7.286)"/>
</svg>
