<svg id="Back_Logo" data-name="Back Logo" xmlns="http://www.w3.org/2000/svg" width="85.589" height="74.66" viewBox="0 0 85.589 74.66">
  <defs>
    <style>
      .cls-1 {
        fill: #3d3d3d;
      }

      .cls-2 {
        fill: #e9e9e9;
      }

      .cls-3, .cls-5 {
        fill: #fff;
      }

      .cls-3 {
        stroke: #fff;
        stroke-miterlimit: 10;
        stroke-width: 0.25px;
      }

      .cls-4 {
        fill: #7b7b7b;
      }

      .cls-5 {
        font-size: 14px;
        font-family: Montserrat-SemiBold, Montserrat;
        font-weight: 600;
        letter-spacing: 0.05em;
      }
    </style>
  </defs>
  <path id="Path_1_1_" class="cls-1" d="M53.94,47.293A12.45,12.45,0,0,0,72.222,33.22,23.245,23.245,0,0,0,53.94,47.293Z" transform="translate(-3.6 -2.217)"/>
  <path id="Path_2_1_" class="cls-2" d="M85.589,0c-.625,5.04-2.37,12.655-8.091,18.833C70.489,26.392,63.069,25.8,54.4,33.1c-3.518,2.958-8.082,7.942-11.61,16.537A41.592,41.592,0,0,0,31.18,33.1c-8.67-7.307-16.089-6.71-23.1-14.269C2.37,12.655.625,5.04,0,0A39.616,39.616,0,0,0,14.7,12.1c6.318,2.921,11.32,2.921,20.438,7.438A70.219,70.219,0,0,1,42.8,23.957a70.219,70.219,0,0,1,7.662-4.414c9.118-4.517,14.12-4.526,20.438-7.438A39.66,39.66,0,0,0,85.589,0Z"/>
  <path id="Path_3_1_" class="cls-1" d="M36.32,47.293A12.455,12.455,0,0,1,18.038,33.21,23.245,23.245,0,0,1,36.32,47.293Z" transform="translate(-1.174 -2.217)"/>
  <path id="Path_6_1_" class="cls-3" d="M49.13,80" transform="translate(-3.279 -5.34)"/>
  <path id="Path_9_1_" class="cls-4" d="M85.589,0c-.625,5.04-2.37,12.655-8.091,18.833C70.489,26.392,63.069,25.8,54.4,33.1c-3.518,2.958-8.082,7.942-11.61,16.537A41.592,41.592,0,0,0,31.18,33.1c-8.67-7.307-16.089-6.71-23.1-14.269C2.37,12.655.625,5.04,0,0,3.976,8.39,8.857,12.832,12.627,15.343c6.645,4.414,11.591,3.994,18.908,9.006A40.3,40.3,0,0,1,42.64,35.968a35.33,35.33,0,0,1,10.5-11.236c7.037-4.722,12-4.022,18.4-7.653C75.8,14.652,81.277,9.986,85.589,0Z"/>
  <text id="BACK" class="cls-5" transform="translate(21 66.495)"><tspan x="0" y="0">BACK</tspan></text>
</svg>
