<svg id="bdcb0c3f6d67999723518ef3c2ad5494" xmlns="http://www.w3.org/2000/svg" width="25" height="25" viewBox="0 0 25 25">
  <path id="Path_4" data-name="Path 4" d="M34.836,7.112a.96.96,0,0,0-.8-.428h0l-19.014.043L13.439,1.871a.967.967,0,0,0-.918-.671H10.965a.977.977,0,0,0,0,1.955h.857L13.4,7.989l.016.043,2.413,7.4-3,5.659a.987.987,0,0,0,.023.964.964.964,0,0,0,.829.475h16.98a.976.976,0,0,0,0-1.952H15.288l2.158-4.071H30.921a.961.961,0,0,0,.9-.614l3.112-7.871a.993.993,0,0,0-.092-.913Zm-4.566,7.442H17.565L15.657,8.678,32.61,8.64Z" transform="translate(-9.999 -1.2)"/>
  <path id="Path_5" data-name="Path 5" d="M198.48,897.9a1.081,1.081,0,1,0,1.08,1.081A1.081,1.081,0,0,0,198.48,897.9Z" transform="translate(-192.529 -875.062)"/>
  <path id="Path_6" data-name="Path 6" d="M659.081,897.9a1.08,1.08,0,1,0,.765.316,1.081,1.081,0,0,0-.765-.316Z" transform="translate(-641.161 -875.062)"/>
</svg>
