<svg id="_6f0a18fad030e38fc7194c6a4c334793" data-name="6f0a18fad030e38fc7194c6a4c334793" xmlns="http://www.w3.org/2000/svg" width="27.144" height="24.781" viewBox="0 0 27.144 24.781">
  <path id="Path_1" data-name="Path 1" d="M29.85,81.5a7.92,7.92,0,0,0-6.282,3.363A7.915,7.915,0,0,0,17.294,81.5a7.052,7.052,0,0,0-5.266,2.384A8.091,8.091,0,0,0,10,89.6c0,5.413,4.487,9.19,7.766,11.954,1.242,1.048,2.151,1.788,2.893,2.391a23.119,23.119,0,0,1,2.392,2.105.7.7,0,0,0,1.036,0,34.433,34.433,0,0,1,3.635-3.159l1.639-1.328c2.714-2.212,7.771-6.321,7.771-12.013A8.06,8.06,0,0,0,35.1,83.862,7.025,7.025,0,0,0,29.85,81.5ZM17.294,83.073a6.827,6.827,0,0,1,5.665,3.544.749.749,0,0,0,1.218,0,6.84,6.84,0,0,1,5.676-3.546,5.64,5.64,0,0,1,4.205,1.913,6.47,6.47,0,0,1,1.615,4.572c0,4.533-3.716,7.935-7.2,10.765l-1.639,1.328c-1.7,1.38-2.53,2.052-3.27,2.771-.535-.517-1.139-1-2.008-1.719-.709-.578-1.622-1.32-2.879-2.383-3.04-2.556-7.2-6.058-7.2-10.71a6.5,6.5,0,0,1,1.606-4.6,5.663,5.663,0,0,1,4.219-1.935Z" transform="translate(-9.995 -81.5)"/>
</svg>
