<svg xmlns="http://www.w3.org/2000/svg" width="547.102" height="325.201" viewBox="0 0 547.102 325.201">
  <g id="LogInIllustration" transform="translate(-48.706 -333.944)">
    <ellipse id="Shadow" cx="66.5" cy="17" rx="66.5" ry="17" transform="translate(103 625.146)" fill="#e44108"/>
    <g id="Boy" transform="translate(48.706 333.944)">
      <path id="Path_1121" data-name="Path 1121" d="M198.158,630.272l-.576-1.065c7.72-4.175,17.328-9.371,22.346-17.9,4.947-8.406,5.058-19.82.29-29.789-4.058-8.484-11.512-16.085-21.556-21.981-1.981-1.163-4.061-2.265-6.072-3.331-4.862-2.576-9.889-5.241-14.034-9.021-5.709-5.206-10.029-13.944-6.809-21.726a14.441,14.441,0,0,1,12.517-8.757l.068,1.209a13.233,13.233,0,0,0-11.47,8.019c-2.992,7.232,1.113,15.439,6.51,20.361,4.032,3.677,8.99,6.3,13.785,8.846,2.023,1.072,4.115,2.181,6.118,3.357,10.253,6.019,17.873,13.8,22.036,22.5,4.94,10.327,4.81,22.177-.338,30.926C215.782,620.741,206.01,626.026,198.158,630.272Z" transform="translate(-156.996 -322.225)" fill="#f1f1f1"/>
      <ellipse id="Ellipse_4" data-name="Ellipse 4" cx="10.593" cy="5.145" rx="10.593" ry="5.145" transform="translate(24.346 190.568)" fill="#f1f1f1"/>
      <ellipse id="Ellipse_5" data-name="Ellipse 5" cx="10.593" cy="5.145" rx="10.593" ry="5.145" transform="translate(32.821 224.467)" fill="#f1f1f1"/>
      <ellipse id="Ellipse_6" data-name="Ellipse 6" cx="10.593" cy="5.145" rx="10.593" ry="5.145" transform="translate(13.45 229.915)" fill="#f1f1f1"/>
      <ellipse id="Ellipse_7" data-name="Ellipse 7" cx="10.593" cy="5.145" rx="10.593" ry="5.145" transform="translate(43.717 258.365)" fill="#f1f1f1"/>
      <ellipse id="Ellipse_8" data-name="Ellipse 8" cx="10.593" cy="5.145" rx="10.593" ry="5.145" transform="translate(64.903 258.365)" fill="#f1f1f1"/>
      <rect id="Rectangle_62" data-name="Rectangle 62" width="340.677" height="161.657" transform="translate(206.424 9.34)" fill="#e6e6e6"/>
      <rect id="Rectangle_75" data-name="Rectangle 75" width="321.194" height="134.876" transform="translate(216.166 23.202)" fill="#fff"/>
      <rect id="Rectangle_80" data-name="Rectangle 80" width="340.677" height="14.473" transform="translate(206.279)" fill="#13499f"/>
      <circle id="Ellipse_90" data-name="Ellipse 90" cx="2.683" cy="2.683" r="2.683" transform="translate(214.352 4.012)" fill="#fff"/>
      <circle id="Ellipse_91" data-name="Ellipse 91" cx="2.683" cy="2.683" r="2.683" transform="translate(224.533 4.012)" fill="#fff"/>
      <circle id="Ellipse_92" data-name="Ellipse 92" cx="2.683" cy="2.683" r="2.683" transform="translate(234.716 4.012)" fill="#fff"/>
      <path id="Path_142" data-name="Path 142" d="M741.682,286.635a1.3,1.3,0,0,0,0,2.6h71.31a1.3,1.3,0,0,0,0-2.6Z" transform="translate(-381.854 -231.424)" fill="#e6e6e6"/>
      <path id="Path_143" data-name="Path 143" d="M741.682,299.518a1.3,1.3,0,0,0,0,2.6h36.405a1.3,1.3,0,0,0,0-2.6Z" transform="translate(-381.854 -236.509)" fill="#e6e6e6"/>
      <path id="Path_142-2" data-name="Path 142" d="M738.717,361.871a1.3,1.3,0,1,0,0,2.6H872.424a1.3,1.3,0,0,0,0-2.6Z" transform="translate(-380.684 -261.118)" fill="#e6e6e6"/>
      <path id="Path_143-2" data-name="Path 143" d="M738.717,374.754a1.3,1.3,0,1,0,0,2.6h98.8a1.3,1.3,0,0,0,0-2.6Z" transform="translate(-380.684 -266.202)" fill="#e6e6e6"/>
      <path id="Path_142-3" data-name="Path 142" d="M738.717,387.345a1.3,1.3,0,1,0,0,2.6H872.424a1.3,1.3,0,1,0,0-2.6Z" transform="translate(-380.684 -271.172)" fill="#e6e6e6"/>
      <path id="Path_143-3" data-name="Path 143" d="M738.717,400.227a1.3,1.3,0,1,0,0,2.6h98.8a1.3,1.3,0,0,0,0-2.6Z" transform="translate(-380.684 -276.256)" fill="#e6e6e6"/>
      <circle id="Ellipse_9" data-name="Ellipse 9" cx="11.316" cy="11.316" r="11.316" transform="translate(276.814 83.395)" fill="#a0616a"/>
      <path id="Path_1122" data-name="Path 1122" d="M609.376,330.317s5.281,1.415,8.016,1.98,2.452-1.037,2.452-1.037,3.583.472,3.395.094,1.509-2.358-.472-4.621-1.414-3.961-1.414-3.961h-1.7l-.471-.66h-2.64s-2.919-2.56-8.106-1.805-11.32,2.748-11.886,5.86c-.077.422-.178.891-.3,1.386-1.418,5.988,1.6,11.59,4.721,16.89.768,1.3,4.484,4.143,4.389,2.194s-3.345-6.326-1.081-6.609S610.413,334,609.376,330.317Z" transform="translate(-324.829 -244.659)" fill="#2f2e41"/>
      <path id="Path_1123" data-name="Path 1123" d="M609.257,398.371a39.577,39.577,0,0,1-6.476-1.064l.119-2.257.991-17.943.009-.138h19.934l3.128,16.521.422,2.229c-.826.321-1.66.624-2.513.89-.009,0-.009.009-.018.009-1.183.367-2.385.688-3.6.954a41.485,41.485,0,0,1-4.88.752,37.54,37.54,0,0,1-3.816.183C611.459,398.509,610.349,398.463,609.257,398.371Z" transform="translate(-327.547 -267.077)" fill="#13499f"/>
      <path id="Path_1124" data-name="Path 1124" d="M586.573,395.173c-.826-.358-1.624-.743-2.412-1.147l-.34-.174c-.229-.119-.468-.248-.7-.376q-.468-.261-.908-.523c-.284-.165-.578-.339-.862-.514-.018-.009-.027-.018-.046-.018-.991-.633-1.963-1.284-2.9-1.991l-.468-.358-.165-2.642.238-.147L594.023,377.1l.22-.138.018-.009,2.257.009v8.4c1.275,1.844,2.138,5.706,2.67,10.76.073.725.138,1.468.2,2.238a39.572,39.572,0,0,1-6.476-1.064c-.229-.046-.45-.1-.679-.165a37.958,37.958,0,0,1-3.944-1.266c-.395-.147-.78-.3-1.165-.459l-.037-.018C586.922,395.32,586.739,395.247,586.573,395.173Z" transform="translate(-317.678 -267.071)" fill="#2f2e41"/>
      <path id="Path_1125" data-name="Path 1125" d="M581.923,400.307q-.468-.261-.908-.523c-.284-.165-.578-.339-.862-.514-.018-.009-.027-.018-.046-.018-.991-.633-1.963-1.284-2.9-1.991l-.468-.358c-.073-.064-.146-.119-.229-.183-.587-.45-1.156-.917-1.706-1.413-.027-.018-.046-.046-.073-.064a6.309,6.309,0,0,1,1.844-.982l.651.193,4.642,1.394.027,1.881Z" transform="translate(-316.476 -273.901)" fill="#2f2e41"/>
      <path id="Path_1126" data-name="Path 1126" d="M644.126,393.216c-.276.147-.551.294-.826.431-.065.037-.119.064-.174.092-.367.183-.725.367-1.092.541-.009.009-.028.009-.028.018-.018.009-.046.018-.064.028-.826.394-1.66.761-2.514,1.1-.826.321-1.66.624-2.513.89-.009,0-.009.009-.018.009-1.183.367-2.385.688-3.6.954a7.571,7.571,0,0,1,.294-2.229l.009-.128.789-12.769-1.055-5.477,3.027-.449,16.649,8.963s-1.835,1.835-9.366,5.743C642.983,391.278,643.961,392.427,644.126,393.216Z" transform="translate(-339.592 -266.784)" fill="#2f2e41"/>
      <path id="Path_1127" data-name="Path 1127" d="M596.115,357.3c-1.193.11-2.4.165-3.614.165-1.174,0-2.339-.046-3.5-.156.073.725.138,1.468.2,2.238,1.092.092,2.2.138,3.3.138a37.559,37.559,0,0,0,3.816-.183,41.5,41.5,0,0,0,4.88-.752,7.568,7.568,0,0,1,.294-2.229l.009-.128a38.127,38.127,0,0,1-5.384.908Zm34.666-51.481a40.54,40.54,0,1,0-70.057,38.51c.367.459.743.917,1.128,1.358.037.037.055.064.082.092a38.654,38.654,0,0,0,3.018,3.11c.257.238.523.477.789.706.028.018.046.046.073.064.55.5,1.119.963,1.706,1.413.083.064.156.119.229.183l.468.358c.936.706,1.908,1.358,2.9,1.991.018,0,.027.009.046.018.284.174.578.349.862.514s.6.349.908.523c.229.128.468.257.7.376l.34.174c.789.4,1.587.789,2.412,1.147.165.073.348.147.514.22l.037.018c.385.156.77.312,1.165.459a37.963,37.963,0,0,0,3.944,1.266c.229.064.45.119.679.165a39.582,39.582,0,0,0,6.476,1.064c1.092.092,2.2.138,3.3.138a37.561,37.561,0,0,0,3.816-.183,41.5,41.5,0,0,0,4.88-.752c1.211-.266,2.413-.587,3.6-.954.009,0,.009-.009.018-.009.853-.266,1.688-.569,2.513-.89.853-.339,1.688-.706,2.514-1.1.018-.009.046-.018.064-.028,0-.009.018-.009.028-.018.367-.174.724-.358,1.092-.541.055-.028.11-.055.174-.092.275-.138.55-.284.826-.431.018-.009.027-.018.046-.028.725-.4,1.44-.826,2.147-1.275.193-.119.385-.239.578-.376.284-.174.559-.367.826-.56.358-.248.715-.5,1.064-.771a2.828,2.828,0,0,0,.33-.248c.853-.642,1.679-1.321,2.468-2.036a40.505,40.505,0,0,0,11.3-43.574Zm-11.99,41.207a39.234,39.234,0,0,1-3.119,2.642c-.238.183-.486.367-.734.532-.239.183-.477.358-.725.523-.211.147-.422.294-.642.431-.018.018-.046.027-.064.046-.156.11-.321.211-.477.312-.486.3-.991.605-1.486.89-.119.064-.229.138-.349.2-.064.037-.129.073-.2.11-.275.156-.551.294-.826.44-.037.028-.082.037-.119.064a.068.068,0,0,0-.037.018c-.193.1-.385.193-.578.284-.165.083-.321.165-.486.239-.67.321-1.358.624-2.046.908-.725.294-1.458.56-2.2.807-.184.064-.376.138-.569.193-.872.275-1.743.523-2.633.725a38.137,38.137,0,0,1-5.384.908c-1.193.11-2.4.165-3.614.165-1.174,0-2.339-.046-3.5-.156a37.751,37.751,0,0,1-6.155-1.082l-.229-.055a35.169,35.169,0,0,1-4.853-1.651c-.082-.037-.174-.064-.248-.1-.092-.037-.174-.064-.248-.1-.092-.037-.174-.073-.257-.11-.688-.3-1.358-.633-2.027-.972l-.312-.165c-.6-.312-1.183-.633-1.761-.991-.2-.11-.413-.238-.615-.367-.229-.138-.459-.284-.679-.431l-.165-.11c-.514-.349-1.036-.7-1.532-1.073-.348-.257-.688-.5-1.028-.771-.22-.165-.44-.339-.651-.523-.138-.1-.275-.22-.413-.339-.183-.156-.367-.312-.55-.477-.284-.229-.55-.486-.808-.725a36.448,36.448,0,0,1-2.926-3.027c-.312-.349-.606-.7-.89-1.064a2.213,2.213,0,0,1-.184-.229,38.316,38.316,0,1,1,56.325,4.082Z" transform="translate(-307.487 -228.258)" fill="#3f3d56"/>
      <path id="Path_1128" data-name="Path 1128" d="M163.435,478.034h7.421l3.53-28.625H163.434Z" transform="translate(-64.503 -177.368)" fill="#a0616a"/>
      <path id="Path_1129" data-name="Path 1129" d="M308.406,688.122h14.616a9.314,9.314,0,0,1,9.314,9.313v.3H308.406Z" transform="translate(-211.366 -389.879)" fill="#2f2e41"/>
      <path id="Path_1130" data-name="Path 1130" d="M209.435,478.034h7.421l3.53-28.625H209.434Z" transform="translate(-82.657 -177.368)" fill="#a0616a"/>
      <path id="Path_1131" data-name="Path 1131" d="M354.406,688.122h14.616a9.314,9.314,0,0,1,9.314,9.313v.3H354.406Z" transform="translate(-229.521 -389.879)" fill="#2f2e41"/>
      <path id="Path_1132" data-name="Path 1132" d="M267.409,485.53a6.087,6.087,0,0,0-1.14-9.264l5.156-21.008-10.589,3.773L257.563,478.4a6.12,6.12,0,0,0,9.846,7.128Z" transform="translate(-190.994 -297.975)" fill="#9e616a"/>
      <path id="Path_1133" data-name="Path 1133" d="M401.855,482.53a6.087,6.087,0,0,1,1.14-9.264l-5.156-21.007,10.589,3.773L411.7,475.4a6.12,6.12,0,0,1-9.846,7.128Z" transform="translate(-246.663 -296.791)" fill="#9e616a"/>
      <path id="Path_1134" data-name="Path 1134" d="M142.367,279.816l10.286,120.5,15.051-1.372,6.024-93.13,5.362,36.876,1.074,58.575,13.62-.908,7.563-63.015-1.855-61.028-51.705-5.236Z" transform="translate(-56.188 -106.986)" fill="#2f2e41"/>
      <circle id="Ellipse_10" data-name="Ellipse 10" cx="15.609" cy="15.609" r="15.609" transform="translate(98.866 31.959)" fill="#a0616a"/>
      <path id="Path_1135" data-name="Path 1135" d="M316.92,244.254s7.284,1.951,11.056,2.732,3.382-1.431,3.382-1.431,4.943.65,4.683.13,2.081-3.252-.65-6.374-1.951-5.463-1.951-5.463H331.1l-.65-.911h-3.642s-4.027-3.531-11.181-2.49-15.615,3.791-16.395,8.084c-.106.582-.245,1.229-.407,1.912-1.956,8.259,2.2,15.986,6.511,23.3,1.06,1.8,6.184,5.715,6.053,3.027s-4.613-8.725-1.492-9.115S318.351,249.327,316.92,244.254Z" transform="translate(-207.387 -209.173)" fill="#2f2e41"/>
      <path id="Path_1136" data-name="Path 1136" d="M306.8,308.6h27.489l19.437,102.649s-16.946,1.449-26.631,5.081-25.786-8.3-25.786-8.3Z" transform="translate(-208.564 -240.095)" fill="#13499f"/>
      <path id="Path_1137" data-name="Path 1137" d="M299.189,320.184V308.592l-3.112-.019-22.74,14.458,4.934,79.215s5.84,26.427,14.7,26.153S308.658,333.913,299.189,320.184Z" transform="translate(-197.525 -240.082)" fill="#2f2e41"/>
      <path id="Path_1138" data-name="Path 1138" d="M274.078,334.646l-7.3-2.188s-5.407,1.583-5.407,7.031-4.659,82.85-4.659,82.85l14.8,1.308,3.176-39.364Z" transform="translate(-190.962 -249.509)" fill="#2f2e41"/>
      <path id="Path_1139" data-name="Path 1139" d="M351.412,315.745l-1.456-7.548,4.18-.624,15.133,6.053s13.62,99.577,7.567,102.6-10.14.682-10.14.682-19.911-73.442-16.386-83.37Z" transform="translate(-227.739 -239.688)" fill="#2f2e41"/>
      <path id="Path_1140" data-name="Path 1140" d="M364.4,318.734l2.583-1.124s7.581-3.757,11.882,3.829S398.3,413.77,398.3,413.77l-12.452,2.341-9.309-30.5Z" transform="translate(-233.467 -243.282)" fill="#2f2e41"/>
      <path id="Path_1141" data-name="Path 1141" d="M379.332,703.784H148.7a.605.605,0,0,1,0-1.211H379.332a.605.605,0,0,1,0,1.211Z" transform="translate(-148.096 -395.583)" fill="#cacaca"/>
    </g>
  </g>
</svg>
