<svg id="NOX_Logo" data-name="NOX Logo" xmlns="http://www.w3.org/2000/svg" xmlns:xlink="http://www.w3.org/1999/xlink" width="115.158" height="172.537" viewBox="0 0 115.158 172.537">
  <defs>
    <style>
      .cls-1, .cls-2, .cls-3 {
        mix-blend-mode: multiply;
        isolation: isolate;
      }

      .cls-1 {
        fill: url(#radial-gradient);
      }

      .cls-2 {
        fill: url(#linear-gradient);
      }

      .cls-3 {
        fill: url(#radial-gradient-2);
      }

      .cls-4 {
        fill: #fff;
        stroke: #fff;
        stroke-miterlimit: 10;
        stroke-width: 0.25px;
      }

      .cls-5 {
        fill: #4d4d4d;
      }

      .cls-6 {
        fill: none;
      }

      .cls-7 {
        fill: #fe5920;
      }
    </style>
    <radialGradient id="radial-gradient" cx="0.5" cy="0.5" r="0.549" gradientTransform="translate(0.079) scale(0.843 1)" gradientUnits="objectBoundingBox">
      <stop offset="0"/>
      <stop offset="1" stop-color="#4d4d4d"/>
    </radialGradient>
    <linearGradient id="linear-gradient" y1="0.5" x2="1" y2="0.5" gradientUnits="objectBoundingBox">
      <stop offset="0" stop-color="#f9e3cb"/>
      <stop offset="1" stop-color="#fe5209"/>
    </linearGradient>
    <radialGradient id="radial-gradient-2" cx="0.5" cy="0.5" r="0.549" xlink:href="#radial-gradient"/>
  </defs>
  <g id="Group_1" data-name="Group 1">
    <path id="Path_1" data-name="Path 1" class="cls-1" d="M978.11,510.658a16.753,16.753,0,0,0,24.593-18.943,31.3,31.3,0,0,0-24.593,18.943Z" transform="translate(-910.375 -450.008)"/>
    <path id="Path_2" data-name="Path 2" class="cls-2" d="M972.488,417.346c-.841,6.786-3.185,17.032-10.885,25.338-9.427,10.173-19.41,9.371-31.075,19.2-4.733,3.987-10.874,10.683-15.619,22.247-4.745-11.564-10.885-18.26-15.619-22.247-11.665-9.826-21.647-9.023-31.075-19.2-7.7-8.306-10.044-18.552-10.885-25.338,7.234,9.293,14.5,13.846,19.774,16.286,8.5,3.926,15.226,3.931,27.5,10.011a95.566,95.566,0,0,1,10.308,5.939,95.572,95.572,0,0,1,10.308-5.939c12.265-6.079,18.995-6.085,27.5-10.011C957.99,431.193,965.247,426.639,972.488,417.346Z" transform="translate(-857.33 -417.346)"/>
    <path id="Path_3" data-name="Path 3" class="cls-3" d="M921.969,510.658a16.753,16.753,0,0,1-24.593-18.943,31.3,31.3,0,0,1,24.593,18.943Z" transform="translate(-874.672 -450.008)"/>
    <path id="Path_4" data-name="Path 4" class="cls-2" d="M926.452,539.98a35.512,35.512,0,0,1-12.209,10.8c-10.089,5.288-17.682,2.434-25.326,8.339a24.293,24.293,0,0,0-7.829,11.519,75.235,75.235,0,0,1-7.975-78.514c-.179,3.2-.791,20.122,11.962,33.9C901.249,543.491,924.478,540.289,926.452,539.98Z" transform="translate(-860.961 -450.188)"/>
    <path id="Path_5" data-name="Path 5" class="cls-2" d="M976.77,544.038c-8.709,22.4-26.874,32.387-32.235,35.23-25.562,13.538-50.507,6.6-55.835,4.986v-.011c.011-.045.017-.09.028-.14,1.133-6.365,3.791-14.856,10.835-20.453,7.543-6,14.233-3.993,25.091-7.644,13.891-4.672,22.074-14.379,29.852-23.6a97.717,97.717,0,0,0,20.352-40.951C976.809,495.7,986.747,518.375,976.77,544.038Z" transform="translate(-871.107 -449.894)"/>
    <path id="Path_6" data-name="Path 6" class="cls-4" d="M967.332,596.479" transform="translate(-905.641 -496.019)"/>
    <path id="Path_7" data-name="Path 7" class="cls-2" d="M976.77,544.038c-8.709,22.4-26.874,32.387-32.235,35.23-25.562,13.538-50.507,6.6-55.835,4.986v-.011c.011-.045.017-.09.028-.14.774-2.316,21-1.66,44.9-13.975,10.981-5.659,32.679-16.847,40.878-40.541,5.586-16.151,2.434-30.962.353-38.13C976.809,495.7,986.747,518.375,976.77,544.038Z" transform="translate(-871.107 -449.894)"/>
    <path id="Path_8" data-name="Path 8" class="cls-2" d="M914.243,550.781c-10.089,5.288-17.682,2.434-25.326,8.339a24.293,24.293,0,0,0-7.829,11.519,75.235,75.235,0,0,1-7.975-78.514c-3.191,14.862-4.672,33.7,5.917,44.646C891.368,549.52,911.708,542.9,914.243,550.781Z" transform="translate(-860.961 -450.188)"/>
    <path id="Path_9" data-name="Path 9" class="cls-2" d="M972.488,417.346c-.841,6.786-3.185,17.032-10.885,25.338-9.427,10.173-19.41,9.371-31.075,19.2-4.733,3.987-10.874,10.683-15.619,22.247-4.745-11.564-10.885-18.26-15.619-22.247-11.665-9.826-21.647-9.023-31.075-19.2-7.7-8.306-10.044-18.552-10.885-25.338,5.345,11.295,11.912,17.267,16.993,20.638,8.945,5.945,15.6,5.373,25.439,12.119a54.222,54.222,0,0,1,14.94,15.63,47.507,47.507,0,0,1,14.121-15.12c9.472-6.354,16.146-5.417,24.76-10.3C959.314,437.059,966.694,430.777,972.488,417.346Z" transform="translate(-857.33 -417.346)"/>
  </g>
  <g id="Group_3" data-name="Group 3" transform="translate(8.371 140.243)">
    <path id="Path_10" data-name="Path 10" class="cls-5" d="M894.9,691.6l-18.943-23.544h-3.7v31.573h4.51V676.087l18.943,23.544h3.7V668.059H894.9Z" transform="translate(-872.256 -667.698)"/>
    <g id="Group_2" data-name="Group 2" transform="translate(34.053 0)">
      <path id="Path_11" data-name="Path 11" class="cls-6" d="M965.551,686.043a11.853,11.853,0,0,0-12.22-11.475q-.352-.013-.7-.006A11.876,11.876,0,0,0,941.017,686.7q-.008.352.005.7a11.877,11.877,0,0,0,12.308,11.429c.219.007.438.008.657,0A11.854,11.854,0,0,0,965.554,686.7C965.559,686.481,965.558,686.262,965.551,686.043Z" transform="translate(-936.507 -670.553)"/>
      <path id="Path_12" data-name="Path 12" class="cls-7" d="M949.8,667.416c-9.7,0-16.824,6.9-16.824,16.147S940.1,699.71,949.8,699.71c9.607,0,16.733-6.856,16.733-16.147S959.408,667.416,949.8,667.416Zm.657,28.282c-.219.006-.438,0-.657,0a11.877,11.877,0,0,1-12.308-11.429q-.014-.352-.005-.7A11.876,11.876,0,0,1,949.1,671.425q.352-.008.7.006a11.853,11.853,0,0,1,12.22,11.475c.007.219.008.438,0,.657A11.854,11.854,0,0,1,950.458,695.7Z" transform="translate(-932.977 -667.416)"/>
    </g>
    <path id="Path_13" data-name="Path 13" class="cls-5" d="M1012.938,683.3l11.141-15.245h-4.92l-8.75,12.133-8.836-12.133H996.43l11.141,15.376-11.862,16.2h5.187l9.336-13.035,9.472,13.035h5.187Z" transform="translate(-926.475 -667.698)"/>
  </g>
</svg>
