<svg id="NOX" xmlns="http://www.w3.org/2000/svg" width="287.769" height="415.209" viewBox="0 0 287.769 415.209">
  <defs>
    <style>
      .cls-1 {
        fill: #2d2739;
      }

      .cls-2 {
        fill: #2f2349;
      }

      .cls-3 {
        fill: #2a2a2e;
      }

      .cls-4 {
        fill: #2d2a33;
      }

      .cls-5 {
        fill: #2e273e;
      }

      .cls-6 {
        fill: #2b2a2f;
      }

      .cls-7 {
        fill: #2c2a33;
      }

      .cls-8 {
        fill: #2e263d;
      }

      .cls-9 {
        fill: #2e283a;
      }

      .cls-10 {
        fill: #2f2937;
      }

      .cls-11 {
        fill: #2f2544;
      }

      .cls-12 {
        fill: #2c263b;
      }

      .cls-13 {
        fill: #2d2936;
      }

      .cls-14 {
        fill: #2f2a36;
      }

      .cls-15 {
        fill: #2b292d;
      }

      .cls-16 {
        fill: #2e2641;
      }

      .cls-17 {
        fill: #2f2447;
      }

      .cls-18 {
        fill: #2a2a2a;
      }

      .cls-19 {
        fill: #2e2a38;
      }

      .cls-20 {
        fill: #2e2445;
      }

      .cls-21 {
        fill: #2e214c;
      }

      .cls-22 {
        fill: #231b36;
      }

      .cls-23 {
        fill: #2e2543;
      }

      .cls-24 {
        fill: #272a37;
      }

      .cls-25 {
        fill: #2b223f;
      }

      .cls-26 {
        fill: #2c2243;
      }

      .cls-27 {
        fill: #271e19;
      }

      .cls-28 {
        fill: #2c2836;
      }

      .cls-29 {
        fill: #2d2540;
      }

      .cls-30 {
        fill: #a8a0b9;
      }

      .cls-31 {
        fill: #5c5073;
      }

      .cls-32 {
        fill: #726d80;
      }

      .cls-33 {
        fill: #fefefd;
      }

      .cls-34 {
        fill: #fdfdfe;
      }

      .cls-35 {
        fill: #fefefe;
      }

      .cls-36 {
        fill: #fdfdfd;
      }

      .cls-37 {
        fill: #f8f8f8;
      }

      .cls-38 {
        fill: #faf9fb;
      }

      .cls-39 {
        fill: #fbfafa;
      }

      .cls-40 {
        fill: #f9f9fa;
      }

      .cls-41 {
        fill: #f5f4f6;
      }

      .cls-42 {
        fill: #f7f4fa;
      }

      .cls-43 {
        fill: #fbfafc;
      }

      .cls-44 {
        fill: #979799;
      }

      .cls-45 {
        fill: #f6f8f8;
      }

      .cls-46 {
        fill: #fcfcfc;
      }

      .cls-47 {
        fill: #fbfbfb;
      }

      .cls-48 {
        fill: #fbfafb;
      }

      .cls-49 {
        fill: #faf9fa;
      }

      .cls-50 {
        fill: #f6f5f7;
      }

      .cls-51 {
        fill: #f3f0f8;
      }

      .cls-52 {
        fill: #faf6fb;
      }

      .cls-53 {
        fill: #f7f5f9;
      }

      .cls-54 {
        fill: #2b2a2d;
      }

      .cls-55 {
        fill: #2a292b;
      }
    </style>
  </defs>
  <path id="Path_1177" data-name="Path 1177" class="cls-1" d="M912.693,424.466c-1.62-.927-3.3-1.769-4.846-2.809-1.219-.818-1.784-.81-2.455.685-2,4.458-3.815,8.985-5.472,13.7-1.671-2.371-2.279-5.049-3.519-7.426-.438-.841.021-1.436.288-2.066,1.053-2.475,2.048-4.989,3.312-7.356.783-1.465.387-2.019-.9-2.8-8.23-4.989-16.5-9.917-24.456-15.345-.7-.477-1.616-.747-2-1.716.951-.235,1.589.38,2.271.712,8.655,4.212,17.073,8.878,25.475,13.569,1.389.775,1.995.861,2.88-.724a111.02,111.02,0,0,1,34.617-38.086c1.264-.865,1.244-1.383.567-2.635-4.149-7.673-8.189-15.4-12.233-23.132a3.843,3.843,0,0,1-.769-2.359,8.427,8.427,0,0,1,2.5,3.116c4.312,6.831,8.612,13.669,12.8,20.579.888,1.463,1.469,1.589,2.932.714a103.559,103.559,0,0,1,50.139-14.76c1.6-.057,2.207-.475,2.025-2.064a18.523,18.523,0,0,1,.059-2.205c.014-2.473,1.109-5.311-2.811-6.507,3.077-.89,3.075-.89,2.113-3.332a.905.905,0,0,1-.106-.452c.344-1.694.348-1.694-1.3-1.945.851-1.27,2.379-.955,3.314-1.544-1.262-3.672-.338-7.246.117-10.84,1.393,3.979.116,8.481,2.185,12.35.272.681-1.182-.045-.968,1.082.139.722.687.542,1.139.55a7.167,7.167,0,0,1,2.616.356c-.828.237-1.647.54-2.492.7-1.039.19-1.309.788-1.207,1.745.117,1.086.939.685,1.5.708,1.223.047,2.451-.033,3.674.01.759.024,1.677-.282,2.138.751a36.616,36.616,0,0,1-4.318.5c-2.418,0-3.275,1-2.917,3.424.307,2.087-.489,4.818.581,6.174,1.094,1.389,3.954.636,6.037.794a103.129,103.129,0,0,1,45.723,14.594c1.469.88,2.064.757,2.942-.716,4.425-7.432,8.9-14.835,13.755-22,.446-.661.945-1.285,1.532-2.074.387.9-.116,1.377-.36,1.894-3.87,8.189-8.281,16.093-12.657,24.012-.728,1.315-.589,1.853.636,2.643,2.123,1.367,4.038,3.054,6.157,4.429,1.383.9.264,1.258-.295,1.8,4.169,1.215,8.367-.155,12.46.73-3.005.808-6.178.147-9.762,1.483,3.637.816,6.645.284,10-.25-1.4,2.529-3.694,1.5-5.918,2.42h6.352c-2.383,1.186-4.936.861-7.567,1.054,3.075,1.982,6.788.219,9.754,2.455l-3.668.276c-.141.871.609,1.135,1,1.561a110.878,110.878,0,0,1,16.032,22.179c.775,1.418,1.332,1.469,2.7.714,8.424-4.644,16.811-9.361,25.479-13.549a4.185,4.185,0,0,1,2.318-.822c-.237,1-1.148,1.242-1.8,1.686-7.823,5.335-15.928,10.218-24.049,15.07-1.669,1-2.226,1.669-1.182,3.658a104.112,104.112,0,0,1,6.679,17.071c.464,1.465.409,2.074-1.315,2.471-4.232.978-4.2,1.09-5.544-3.081a127.33,127.33,0,0,0-5.485-13.874c-.53-1.156-.988-1.718-2.24-.732a14.773,14.773,0,0,1-3.357,1.995c-.642.272-1.411,1.988-2.246.155-.55-1.207-1.553-2.385.5-3.351,1.665-.786,4.355-1.434,4.533-2.856.2-1.567-1.561-3.422-2.576-5.088a99.841,99.841,0,0,0-15.218-19.44c-1.473-1.446-2.461-2.463.665-3.737-3.954-.618-7.655.7-11.337-2.007l5.245-.368c-2.445-2.052-5.094-1.886-7.812-2.068l2.985-.82c-.106-.19-.149-.374-.264-.456-1.853-1.315-3.862-3.8-5.54-3.6-1.763.217-2.379,3.521-3.531,5.452-1.479,2.477-2.886,5-4.324,7.5-1.387-1.2-1.14-2.942-1.485-4.488,1.829-3.146,3.6-6.325,5.513-9.422.638-1.035.736-1.51-.458-2.222a99.97,99.97,0,0,0-47.525-14.219c-1.913-.084-1.669.927-1.655,2.085q.246,18.147.477,36.292c.031,2.457-1.174,3.39-3.578,2.923-1.223-.237-.706-1.141-.7-1.739q.077-11.771.244-23.544c.057-4.658.09-9.32.241-13.976.051-1.53-.237-2.113-1.97-2.035a99.516,99.516,0,0,0-47.077,14.048c-1.156.687-1.458,1.142-.612,2.348,1.952,2.788,3.261,5.994,5.472,8.627.358.16.628.372.464.828l-1.661.19c.7.571,1.62.245,2.035.931a18.361,18.361,0,0,1,1.248,2.1,3.028,3.028,0,0,0,3.588,2.109,5.7,5.7,0,0,1,2.663.16c2,.71,4.175.115,6.162,1.121-3.245.241-6.514.031-9.756.959,2.375.591,5.282-.452,6.943,2.477-2.578-.473-4.693,1.426-7.193,1,.368-2.271-.123-2.747-2.463-2.289a3.287,3.287,0,0,1-2.79-.243c-.921-.278-1.958.135-3.04-.579,1.825-.972,3.76.174,5.472-.683-1.078-.777-2.263-.178-3.339-.419,1.121-1.851-1.133-5.632-4.627-7.534.661-.483,1.894-.634.863-1.939a20.714,20.714,0,0,1-2.637-4.664c-.734-1.712-1.463-1.583-2.813-.626a107.324,107.324,0,0,0-27.332,28.042c-1.675,2.5-3.087,5.18-4.758,7.682-.781,1.168-.444,1.575.634,2.152,2.07,1.109,4.055,2.379,6.074,3.584A2.307,2.307,0,0,1,912.693,424.466Z" transform="translate(-853.209 -327.442)"/>
  <path id="Path_1178" data-name="Path 1178" class="cls-2" d="M931.392,460.61c-2.25-3.238-2.414-4.513-.8-5.92-.714-.544-1.868.442-2.342-.605-.426-.937-1.377-.606-2.068-1.011,1.234-.865,2.768-.039,4.179-.914-2.8-.763-5.476.366-8.074.006l-.029-.634,3.619-.276.018-.151-3.224-.356c2.406-1.334,4.93-.008,7.178-1.383-4.173-.9-8.273.55-12.07-1.352h6.2a28.678,28.678,0,0,0-4.527-5.067,2.007,2.007,0,0,1-.556-2.727,13.664,13.664,0,0,0,1.463-7.364c-.137-1.146.426-1.084,1.2-1.254,4.239-.933,5.141-2.113,4.736-6.475-.452-4.854-2.837-8.974-5.214-13.082-1.5-2.586-1.448-2.739,1.234-4.177a24.943,24.943,0,0,1,9.117-2.62c-1.724,7.135,2.494,11.781,6.532,16.492a3.122,3.122,0,0,0,3.768.843c1.5-.528,1.107-1.579.9-2.606-.221-1.084.544-1.184,1.27-1.367a20.393,20.393,0,0,1,10.177.129c.877.225,1.489.52,1.233,1.649-.151.665-.473,1.6.426,1.952a2.931,2.931,0,0,0,2.8-.151c4.8-3.089,8.436-11.278,7.385-17.21a21.888,21.888,0,0,1,10.713,3.566c1.094.741.614,1.489.145,2.287a47.192,47.192,0,0,0-5.083,10.556,16.674,16.674,0,0,0,.164,10.357c.233.675.333,1.6,1.232,1.624.8.025,1.244-.739,1.6-1.369,1.767-3.122,2.265-6.632,2.845-10.083a66.777,66.777,0,0,0,.808-20.017c-.184-1.379.037-3.439-1.6-3.76-1.7-.336-2.5,1.546-3.263,2.868-.589,1.017-.992,2.14-1.573,3.42-2.307-10.149,5.069-26.412,13.624-30.057.043,3.128-.049,6.19.765,9.169,1.671,6.1,5.333,8.631,11.587,7.7,1.557-.233,1.166.71,1.184,1.387a35.661,35.661,0,0,1-1.481,9.41c-1.647,6.765-4.961,12.955-6.738,19.673-.941,3.551-1.939,7.086-2.893,10.631-.17.63-.164,1.346-1.088,1.35-4.29.018-5.464,3.181-6.513,6.472a11.031,11.031,0,0,1-.446,1.1c-.016.037-.139.027-.409.068a32.213,32.213,0,0,1,.7-8.856c.266-1.612.466-3.236.73-4.85.19-1.154.376-2.334,2.087-1.68.8.3,1.137-.108,1.272-.941.223-1.369.56-2.721.9-4.067.233-.916.223-1.677-.943-1.741-1.542-.084-1.4-.9-1.015-1.976.413-1.152.743-2.334,1.058-3.517.44-1.661,1.035-2.978,3.093-1.761.068.041.18.108.223.082,1.962-1.184,1.487-3.51,2.414-5.19.452-.82.18-1.434-.79-1.569-1.815-.254-1.829-1.289-1.448-2.778a25.107,25.107,0,0,0,.393-9.257,3.607,3.607,0,0,0-.665-1.8,23.89,23.89,0,0,1-5.061-12.683c-2.009,3.1-3.893,5.444-5.261,8.2.3.1.376.149.407.129,1.017-.636,1.622-2.51,2.692-2.144,1.17.4,1.019,2.236,1.178,3.482a94.963,94.963,0,0,1-.366,26.878c-1.432,9.113-2.653,18.272-5.638,27.058-.771,2.269-.865,2.238-3.265,2.393,1.909,2.837-1.686,1.33-1.9,2.516,1.168,1.667,2.952,1.98,4.938,2.037a25.242,25.242,0,0,1-10.325,1.111c2.524,1.98,5.386,1.5,8.033,2.037-.129.3-.168.522-.233.532-1.587.213-3.175.405-4.762.6.64,1.6-.368,2.925-.74,4.345a3.762,3.762,0,0,1-1.438,2.506,8.6,8.6,0,0,0-1.131-4.584,6.018,6.018,0,0,0-6.87-2.455c-1.79.6-3.384,3.537-3.056,5.638.3,1.952,1.829,2.807,3.3,1.866.352-.225.741-.37.446-.9-1.7-3.077.743-3.9,3.083-5.429-1.36,3.508.325,5.147,3.111,6.37-5.7,3.936-12.027,6.6-16.044,12.671-4.054-5.679-10.218-8.457-16.032-12.335,2.809-1.221,4.554-2.815,3.322-5.945,3.322,1.332,3.776,1.992,2.995,4.775-.227.812,0,.988.6,1.24a1.869,1.869,0,0,0,2.561-.634c1.614-2.269-.352-6.632-3.253-7.146-3.32-.589-6.068,1.217-6.992,4.635C931.623,458.941,931.547,459.72,931.392,460.61Z" transform="translate(-806.023 -278.372)"/>
  <path id="Path_1179" data-name="Path 1179" class="cls-3" d="M938.33,525.163h5.431l.012-.425-9.49-.792-.012-.82a25.538,25.538,0,0,0,13.27-1.927c-3.236,0-6.442-.387-9.482.155a35.715,35.715,0,0,1-5.026.853c-.685.022-1.512-.149-1.354-.964.166-.853.972-.333,1.407-.147,1.524.652,2.2-1.084,3.566-1.139,2.463-.1,5.18.64,7.176-1.614-1.119-.814-2.573-.1-4.355-.579,1.788-.563,2.052-2.721,4.384-2.334-3.885-.354-3.578-3.478-4.359-5.765-1.1-3.234-2.054-6.52-4.134-9.748,3.472.593,6.192,2.3,9.224,3.694.812-5.863,1.637-11.572,3.562-17.04a26.394,26.394,0,0,1,3.84-7.612c3-3.854,6.906-4.726,11.3-2.58,3.533,1.729,5.765,4.721,7.718,7.978a22.972,22.972,0,0,0,1.148,2.154c3.576,4.75,1.258,9.424-.166,14.091-.409,1.344-2.2.949-3.062,2.195,4.9,1.52,9.825.466,15.308.532-5.511,2.764-11.081.479-16.406,2.371,2.5.863,4.834.493,7.242.79-1.6,1.855-3.74.16-5.427,1.18,1.223.7,2.559.053,3.973.8a8.61,8.61,0,0,0-6.36,4.67c1.319.076.966,1.17.665,2.475-1.831,7.956-3.856,15.879-3.694,24.151a53.87,53.87,0,0,0,3.515,18.669c.491,1.264.528,1.906-.8,2.7-7.358,4.437-17.953,3.682-24.384-1.792-.767-.653-.569-1.058-.288-1.8a49.983,49.983,0,0,0,1.583-29.863c-.243-1.025-.642-1.33-1.583-1.377a10.842,10.842,0,0,1-3.958-.432Z" transform="translate(-791.504 -172.9)"/>
  <path id="Path_1180" data-name="Path 1180" class="cls-4" d="M928.607,482.262l10.233-3.015c.3-.356.757-.223,1.127-.364,10.987-3.032,20.477-8.256,26.851-18.161a88.906,88.906,0,0,0,8.354-16.251c.46-.094.71.018.536.548-3.412,13.013-5.5,26.377-10.384,38.995a85.623,85.623,0,0,1-4.316,9.038c-4.214,7.972-10.963,11.513-19.755,11.683a49.051,49.051,0,0,1-10.959-.89c-1.747-.362-2.647-.033-3.508,1.724a195.22,195.22,0,0,1-15.2,26.5c-2.109,3.007-4.23,6.049-7.318,8.168a8.916,8.916,0,0,1-14.193-6.041A9.216,9.216,0,0,1,891,528.95c.755.3.379.886.395,1.246.168,3.478,4.813,6.331,8.258,4.214,9-5.523,15.766-13.09,21.1-22.071a52.108,52.108,0,0,0,4.764-10.439c.4-1.215.714-1.434,1.986-.97,5.169,1.892,10.32.755,15.406-.5,1.641-.407,2.121-2.146,2.946-3.435.393-.612.006-.8-.473-1.076-.673-.383-1.587-.34-2.23-1.4h4.314c-2.473-1.211-5.1-.745-7.673-1.383,1.952-.929,4.132-.434,6.36-.835-.97-1.162-2.645.1-3.557-1.33,2.16-.851,4.492.2,6.532-.929-3.41-.884-7.107-.027-10.588-1.69,3.244-1.5,6.282-2.682,9.68-2.242a1.994,1.994,0,0,0,2.555-1.843c.327-1.579.939-3.1,1.542-5.012-7.818,1.716-15.455,2.948-22.464,6.337-3.469,1.679-4.836,5.163-6.186,8.51-.665,1.655-.714,3.975-1.894,4.875-.978.747-3.2-.256-4.877-.3-9.32-.243-16.425,6.6-16.772,16.1-.039,1.051-.006,2.107-.006,3.363-3.885-1.332-7.741-2.185-11.621-.284-3.754,1.837-5.56,5.241-7.092,8.909a37.026,37.026,0,0,1,3.876-16.018c-3.113-.348-6.1.147-8.97-.839,5.822.182,11.272-1.483,16.762-3.058h-11.37c2.248-1.663,4.419-.806,6.391-1.26-.575-1.2-1.923-.137-2.682-1.207a33.133,33.133,0,0,1,6.906-.086c-2.248-1.544-2.248-1.544-.609-3.7a70.186,70.186,0,0,1,9.255-9.973,4.406,4.406,0,0,0,3.875,4.275c3.13.53,5.975-.176,8.074-2.817.029-.121.059-.241.088-.362a30.776,30.776,0,0,0,5.491-8.048c.333-.638.618-1.547,1.493-1.379s.87,1.141.826,1.831c-.2,3.152.622,6.3.147,9.57.489-4.351,2.123-8.06,5.568-10.793C927.139,482.409,927.918,482.485,928.607,482.262Z" transform="translate(-849.377 -205.1)"/>
  <path id="Path_1181" data-name="Path 1181" class="cls-5" d="M955.84,465.414c-.673-5.006-.933-7.244-8.432-8.5-2.492-.417-5.012-.655-7.514-1.013a102.42,102.42,0,0,1-16.265-3.351c-2.095-.659-3.639-1.489-2.594-4.077a2.047,2.047,0,0,0,.08-.728,15.176,15.176,0,0,0-.047-3.662c-.411-1.651-2.177-.352-3.115-1.094-.295-.233-.806-.17-1.013-.957a6.772,6.772,0,0,0,5.81-1.864c-2.273,0-4.382,0-6.491-.006-.068,0-.2-.09-.192-.123a1.453,1.453,0,0,1,.129-.325,5.693,5.693,0,0,1,2.189-.466c-.683-.211-1.432.505-2.2.047-1.9-.278-3.93.364-6.029-.943,3.891-1.442,8.056.687,11.564-1.8-3.234-1.013-2.637-4.744-4.9-6.677a4.588,4.588,0,0,1,4.177-1.011c1.606.381,2.361-.2,2.915-1.628a7.186,7.186,0,0,1,1.5-2.211c.389-.409.833-1.585,1.626-.546.489.64,1.655,1.3.466,2.447a9.5,9.5,0,0,0-1.454,2.242c-.241.428-.391.929.184,1.272.7.417.839-.227,1.041-.606.6-1.1,1.246-2.338,2.665-2.154,1.684.221,2.242,1.753,2.725,3.156a12.143,12.143,0,0,1,.491,2.4c.086.653.008,1.473.841,1.549,1.311.121.405-.9.579-1.371.348-.947,1.246-.536,1.88-.745.845-.276.837.426.968.994.178.777-.5,1.97.884,2.2,1.63.27,3.363,1.137,4.889.2a1.939,1.939,0,0,1,1.708-.333c1.219.344,1.446-.346,1.8-1.319.385-1.062.1-1.522-.847-1.776-1.665-.444-1.256-1.364-.515-2.3.759-.957,1.561-1.884,2.389-2.782.972-1.052,1.931-1.522,2.663.258.417,1.011,1.056.693,1.782.329s1.645-.536,1.068-1.7c-.812-1.643.121-2.013,1.5-2.023q1.829-.009,3.662.041c1.379.039,2.277.448,1.434,2.054-.589,1.119.276,1.317.99,1.743.845.5,1.477.6,1.919-.415.753-1.735,1.639-1.064,2.488-.121.814.908,1.592,1.853,2.355,2.809.878,1.1,1.035,2-.665,2.459-.485.131-1.178.352-.812,1.18.284.644.127,1.886.892,1.845,2.256-.123,4.443,1.123,6.732.219a1.477,1.477,0,0,0,1.115-1.346c.131-.822-.72-2.172,1.225-2.236,2.113-.072,1.367,1.473,1.6,2.449,1.6.012,2.326-.716,2.185-2.256a.907.907,0,0,1,.029-.243c.348-1.958.669-4.145,2.8-4.8,2.085-.642,2.588,1.6,3.846,3.478a5.192,5.192,0,0,0-1.639-4.19c-1.26-1.18-.26-1.97.381-2.633,1.008-1.043,1.211.493,1.823.777a.369.369,0,0,1,.157.184c1.17,2.788,2.852,4.417,6.264,3.662,1.289-.284,2.876.425,1.217,2.367a11.346,11.346,0,0,0-1.221,2.455h12.526c-4.631,1.317-9.461,1.5-14.168,2.553,2.465.546,4.967-.086,7.964.487a17.739,17.739,0,0,1-5.149.939c.871,1.526,2.4,1.18,4.032,1.211-.5.436-.605.616-.716.616-6.9.108-6.732,2.717-6.479,7.9.209,4.226.272,4.247-3.905,5.5a81.2,81.2,0,0,1-15.115,2.931,6.562,6.562,0,0,0-5.464,3.885c-1.606,2.983-2.211,6.284-3.193,9.467-.763.421-.763.421-1.072,1.375a3.148,3.148,0,0,1-4.05,2.387,3.24,3.24,0,0,1-2.608-3.946,26.937,26.937,0,0,0,.049-3.85c.016-.241,0-.485.008-.726C956.1,464.9,956.134,465.225,955.84,465.414Z" transform="translate(-813.993 -226.416)"/>
  <path id="Path_1182" data-name="Path 1182" class="cls-6" d="M921.149,502.1c-3.435-.9-6.3.415-9.334-1.544l3.823-.282c-.585-.935-1.743-.552-2.52-1.444,2.3-.941,4.772.178,6.921-1.18h-5.476l-.066-.52,3.7-.841c-.863-.475-1.581-.773-1.833-1.821-.593-2.453-1.367-4.867-2.177-7.26-.38-1.119-.086-1.512,1.025-1.514a9.815,9.815,0,0,0,1.215-.141c1.774-.229,3.915-1.176,5.225-.5,1.542.794-.221,3.058.223,4.682.233.861.223,1.784.413,2.659.692,3.2,2.559,5.036,5.1,5.075a6.713,6.713,0,0,0,6.233-4.985,12.84,12.84,0,0,0-.352-6.771c-.284-1.037-.274-1.448,1.058-1.291a67.627,67.627,0,0,1,16.7,4.547c.974.383.974.784.6,1.608-5.638,12.407-8.195,25.593-9.67,39.027-.258,2.34-2.514,1.274-3.406,2.684,2.917-.9,4.523,1.774,6.937,2.387l-5.229.644c5.122,1.78,10.4.425,16.112,1.041-4.038,2.725-8.606.847-12.5,2.745,1.113,0,2.078,0,3.042,0,.8,0,.628.117.89.528.671,1.06.524,1.338-.751,1.618-1.313.288-3.175.278-3.713,1.471-.368.818.685,2.258,1.058,3.437,1.072,3.386,1.072,3.4-2.123,5.225-7.17,4.085-14.4,4.212-21.656.239-.89-.485-1.794-.8-1.174-2.346,4.361-10.9,4.66-22.1,2.2-33.457-.794-3.668-1.563-7.346-2.5-10.981C918.772,503.379,918.551,502.272,921.149,502.1Z" transform="translate(-812.256 -163.331)"/>
  <path id="Path_1183" data-name="Path 1183" class="cls-7" d="M981.682,445.36l.2-2.128c.135,1.927.806,3.784.423,5.746a2.833,2.833,0,0,0,2.255,3.5c1.647.38,3.287.207,3.641-2.115a10.272,10.272,0,0,1,1.266-2.551l.221,1.514c-.945,1.557-.824,3.469-.882,5.047-.1,2.893-1.176,5.832-.066,8.77a9.236,9.236,0,0,0,1.782,3.277c7.964,8.5,5.392,24.583-4.871,30.227-7.853,4.316-10.668,11.245-10.5,19.775.031,1.524.327,3.042.532,4.836-5.883-1.667-11.693-3.089-17.58-4.159-6.916-1.258-13.859-2.244-20.919-1.788a31.052,31.052,0,0,0-4.114.573c-2.735.552-4.566,1.651-4.906,5.008-.386,3.823-2.467,7.213-4.455,10.509a105.766,105.766,0,0,1-12.591,16.228c3.525,1.8,4.306,1.616,6.577-1.348,2.254-2.942,5.282-4.742,9.426-6.131a31.184,31.184,0,0,0-5.051,7.055,29.326,29.326,0,0,0-1.974,5.519c-.417,1.61.18,4.093-1.043,4.678-1.188.571-3.2-.653-4.873-1a72.774,72.774,0,0,0-27.725-.043,1.375,1.375,0,0,1-1.015-.174,58.805,58.805,0,0,1,5.519-2.4c8.85-2.85,13.418-9.226,15.269-18.031.8-3.83,4.989-6.468,9.373-5.869-5.413,3.651-8.24,8.3-6.828,15.214,2.244-2.258,4.384-4.2,6.272-6.356,4.2-4.805,8.168-9.789,9.59-16.259a7.392,7.392,0,0,0-.022-4.353c-.677-1.7.135-2.269,1.487-2.886a36.864,36.864,0,0,1,14.516-2.976,70.1,70.1,0,0,1,18.7,1.87,5.749,5.749,0,0,0,4.267-.37c7.211-3.922,9.739-8.4,8.393-16.39a4.53,4.53,0,0,0-1.25-2.6c-7.5-7.293-6.158-22.658,3.236-29.274,4.844-3.412,6.268-8.338,7.238-13.6A57.548,57.548,0,0,0,981.682,445.36Z" transform="translate(-839.835 -206.363)"/>
  <path id="Path_1184" data-name="Path 1184" class="cls-8" d="M1012.706,398.364a5.437,5.437,0,0,0-.016,4.492c.2.534-.11,1.526.9,1.4a1.425,1.425,0,0,0,1.252-1.583c-.45-1.641.749-1.579,1.594-1.7a8.562,8.562,0,0,1,8.625,3.422c.327.43.927.859.681,1.469-.266.667-.992.381-1.514.411a12.249,12.249,0,0,0-8.482,4.128c1.344.7,2.766,0,4.378.679-2.271,1.023-4.715.34-7.033,2.228h8.158l.022.532-7.829.785c.481.837,1.43.156,1.993.73a3.513,3.513,0,0,1-3.255,1.741c-1.141-.084-1.585.761-1.857,1.62-1.583,4.993-4.689,7.1-10.173,7.3a83.577,83.577,0,0,0-27.105,5.656c.833-3.066,1.772-5.979,2.4-8.958a83.461,83.461,0,0,0,1.383-21.477,2.78,2.78,0,0,1,1.076-2.706c5.916-4.717,12.344-8.226,20.027-8.933a6.45,6.45,0,0,0,3.952-2.279c3.915-4.022,9.228-6.063,13.4-9.7.892-.775,1.258-.2,1.34.743a10.844,10.844,0,0,1-1.858,6.468c-1.336,2.318-3.357,4.224-4.1,6.888.691.98-.378,1.853-.16,2.8a2.207,2.207,0,0,0,.81,2.281C1012.021,397.11,1013.029,397.151,1012.706,398.364Z" transform="translate(-748.228 -275.352)"/>
  <path id="Path_1185" data-name="Path 1185" class="cls-9" d="M1002.555,463.864l4.038.79.082.632c-3.574-.781-6.366,1.649-9.7,2.033h8.61c-2.125.982-4.5.794-6.636,1.87h9.062a5.4,5.4,0,0,1-4.742,1.209c-4-.44-6.98.747-9.764,3.95-5.589,6.436-12.344,11.626-19.44,16.355-1.52,1.013-2.1.841-2.31-.931-.34-2.913.088-5.372,2.8-7.236a96.455,96.455,0,0,0,15.57-13.677c-1.332-.511-3.152.074-3.664-2h7.96c-1.364-1.4-2.893-.732-4.756-1.385l7.3-1.285c-2.107-.606-1.724-1.375-.79-2.518a115.406,115.406,0,0,0,9.036-13.377c.953-1.573.7-2.154-.877-3.036q-26.457-14.833-52.817-29.844c-.728-.413-2.064-.577-1.917-1.571a5.249,5.249,0,0,1,2.111-3.206c.851-.651,1.489.335,2.121.708q23.612,13.9,47.19,27.864a60.461,60.461,0,0,1,5.223,3.175c1.385,1.021,1.827.473,2.414-.788a124.751,124.751,0,0,0,6.843-18.319c.52-1.815,1.639-3.887-2.019-3.911,2.154-.663,4.1-.321,6.063-.319-2.8-1.911-6.178-1.027-9.263-1.51l.076-.636a33.8,33.8,0,0,1,4.5-.387c2,.082,2.647-.808,2.829-2.674.26-2.68.935-5.321,1.137-8,.135-1.782.753-2.447,2.531-2.717,4.429-.675,4.414-.779,3.77,3.719-.035.241-.059.487-.1.728-.4,2.553.337,5.863-4.273,5.619,3.447,1.426,6.409,3.062,9.965,2.2-2.193,1.733-4.822.417-7.635,1.358,2.694.929,5.12-.158,7.434.957a2.432,2.432,0,0,1-2.2.939c-.657.025-1.289-.17-.644,1,.5.906-.655.567-1.064.585a25.754,25.754,0,0,0-6.949.818c2.985.62,5.6.059,8.6.945-1.821.959-3.2.516-4.5.544a1.713,1.713,0,0,0-1.956,1.563,107.426,107.426,0,0,1-7.894,21.036c-.7,1.383-.137,1.755.867,2.369,8.353,5.1,16.764,10.1,24.861,15.6a4.656,4.656,0,0,1,1.855,1.583c-.822.415-1.383-.246-1.978-.532-8.819-4.247-17.366-9.013-25.912-13.769-1.532-.851-2.113-.6-2.9.878A102.981,102.981,0,0,1,1002.555,463.864Z" transform="translate(-772.754 -248.66)"/>
  <path id="Path_1186" data-name="Path 1186" class="cls-1" d="M923.224,392.6a41.949,41.949,0,0,0,5.818-7.064c2.968-5.09,3.83-10.335.677-15.682-.605-1.031.043-1.076.651-1.293a37.5,37.5,0,0,1,7.428-1.733c-1.238,6.489-.133,12.853-.677,19.164-.1,1.176.743,1.2,1.375,1.254,1.274.115.6-.935.573-1.375a95.463,95.463,0,0,1,.258-13.227c.336-4.842,2.078-6.46,6.859-6.738,5.331-.309,10.558-.043,15.555,2.2a12.953,12.953,0,0,0,4.55,17.889c.9.511,1.276.814.552,1.774-1.289,1.708-2.594,3.359-5.139,4.206,1.031-2.71-.041-4.388-1.982-6a9.3,9.3,0,0,1-3.042-6.5,26.823,26.823,0,0,1,1.174-11.284c-2.41.3-4.087,1.829-4.159,4.073-.162,4.987-1.581,9.234-5.959,12.223-2.469,1.688-3.265,4.419-3.146,7.344.211,5.225.44,10.449.755,15.668.344,5.667.389,5.662-5.041,7.307,3,1.917,9.263,1.207,11.632-1.274a3.587,3.587,0,0,0,.921-2.7,28.794,28.794,0,0,1,1.878-9.316,7.49,7.49,0,0,1,4.253-4.94c-1.878,5.229-6.323,10.081-1.878,16.04a16.1,16.1,0,0,0-4.216,3.41c-1.029,1.4-1.947,2.933-.532,4.384,1.277,1.305,2.987,1.006,4.535.125.4-.225.54-.865,1.164-.714-1.219,2.954-4.435,4.251-8.072,2.931a13.948,13.948,0,0,0-9.768.151c-3.656,1.279-6.965.053-8.32-3.142,2,1.577,4,2.479,5.967.651,1.2-1.113.19-3.654-2.05-5.654-1.9-1.7-2.353-3.154-1.7-5.519,1.723-6.256-2.311-13.87-8.4-15.848C924.955,393.15,924.188,392.907,923.224,392.6Z" transform="translate(-800.326 -287.336)"/>
  <path id="Path_1187" data-name="Path 1187" class="cls-4" d="M960.7,499.59c.507-.389,1.045-.741,1.512-1.172,1.207-1.117,2.526-2.15.462-3.8-.687-.55-.9-1.7-1.377-2.69-.342.29-.718.563-1.037.888-2.214,2.25-4.406,3.079-7.594,1.36-4.149-2.234-5.957-2.1-9.476-.841,1.995-12.757,2.332-25.587,3.281-38.424.6,3.132,1.158,6.272,1.81,9.392a29.844,29.844,0,0,0,2.676,7.851c.626,1.193,1.213,1.749,2.821,1.139a29.083,29.083,0,0,1,12.307-1.475,8.144,8.144,0,0,1,6.413,3.453,72.049,72.049,0,0,1,11.051,21.6c.982-7.655-.937-14.219-2.944-21.085a6.751,6.751,0,0,1,1.575,2.835c.438.964.822,1.952,1.235,2.927,1.972,4.656,3.932,9.316,5.926,13.962a8.928,8.928,0,0,1,1.049,4.478c-.176,1.645.661,1.823,2,1.855,1.444.035,3.017-.518,4.7.669-3.535.7-6.833-.145-10.613,1.037,4.218,1.129,7.9-.082,11.533.487-.17.949-1.211.781-1.941,1.387,2.191.826,4.57-.225,7.058,1.135-4.834,1.15-9.439.155-14.338.919,1.457.918,2.608.333,3.95.673a3.018,3.018,0,0,0-1.405,3.226c.558,5.529.986,11.073,1.45,16.613.072.853.09,1.708.168,3.24l-17.748-21.979c.878-.3,1.283.405,1.866.6a3.3,3.3,0,0,0,4.629-2.823,24.819,24.819,0,0,0-.489-7.309,43.837,43.837,0,0,0-9.249-20.518,13,13,0,0,0-4.427-3.684c.474,2.361.855,4.376,1.295,6.378a2.179,2.179,0,0,1-1.06,2.616c-4.464,3.118-4.756,5.7-1.115,9.821.865.978.534,1.534-.074,2.25A9.372,9.372,0,0,1,960.7,499.59Z" transform="translate(-779.444 -194.155)"/>
  <path id="Path_1188" data-name="Path 1188" class="cls-9" d="M909.626,460.286c-3.795-.158-4.926-3.116-6.245-5.761-.79-1.579-1.477-1.52-2.913-.724-8.416,4.656-16.8,9.383-25.479,13.534-.7.333-1.322.978-2.361.706a20.379,20.379,0,0,1,4.529-3.345c7.18-4.519,14.365-9.036,21.623-13.426,1.61-.974,2.025-1.606,1.1-3.488A116.824,116.824,0,0,1,888.365,404c-.172-2.5,3.283-5.01,5.652-4.159.978.35.548,1.254.583,1.913A113.09,113.09,0,0,0,905.262,444.5c.761,1.622,1.215,2.132,3.03,1.045,17.286-10.351,34.652-20.567,51.954-30.89,1.565-.933,1.729-.624,2.735.892,1.667,2.516.264,2.956-1.424,3.905-17.276,9.717-34.512,19.5-51.807,29.186-1.587.888-1.864,1.569-.806,3.032a41.821,41.821,0,0,1,2.657,4.4c.865,1.575,2.326,2.015,3.791,2.829,1.886,1.049,3.94.43,5.617,1.847l-5.7.25c.158,1.52,1.127,1.624,2.367,1.6,3.205-.065,6.415-.023,9.656.176-3.557,2.031-7.839.46-11.452,2.318a5.91,5.91,0,0,1,1.63.18c.444.176,1.354-.736,1.405.851.029.894,1.972,1.013,3.525,1.131-2.353.675-1.534,1.557-.587,2.528,2.164,2.226,4.269,4.511,6.452,6.718.614.62.837.9.106,1.706-3.566,3.952-3.555,4.016-7.262.145-2.035-2.123-4.061-4.271-5.891-6.567-2.058-2.582-3.879-5.364-8.24-4.374,1.137-1.673,2.588-.638,3.678-1.43-1.755-.577-3.437.02-5.458-.405,2.58-1.068,4.922-.522,7.184-.843-3.375-1.4-6.957-.683-10.846-.984,1.784-1.013,3.4-.876,4.926-1.115.45-.072,1.015.113,1.322-.407A8.037,8.037,0,0,1,909.626,460.286Z" transform="translate(-853.233 -251.912)"/>
  <path id="Path_1189" data-name="Path 1189" class="cls-10" d="M913.944,465.773c-.049-.405-.127-.9.489-.839,4.118.387,7.931-1.326,11.975-1.567-.129-.728-.716-.743-1.068-1.035-1.547-1.285-1.41-2.406.436-3.171,5.572-2.305,11.155-4.593,16.234-7.9,4.331-2.819,8.578-5.759,10.077-11.153.221-.79.561-.753,1.238-.487a30.32,30.32,0,0,0,7.1,1.761c1.1.149,1.34.513.841,1.559a145.357,145.357,0,0,1-8.244,15.25c-3.281,5.173-8.42,6.143-13.755,6.509-2.14.147-2.766.929-3.03,2.751-.209,1.438-.618,2.846-1,4.558a62.748,62.748,0,0,0,13.868-4.468c-2.987,2.872-6.644,4.56-10.359,6.166-4.846,2.095-10.152,3.048-14.682,5.928-.417.892-1.336,1.052-2.093,1.454a9.567,9.567,0,0,1-5.2.906c-1.9-.6-4.149-.378-5.513-2.283a38.767,38.767,0,0,1-8.017-4.648c-7.393-6.217-16.269-.2-18.413,6.648-.213.679-.172,1.461-.759,2.019a9.035,9.035,0,0,1,3.022-10.5,13.149,13.149,0,0,0,3.776-4.719c1.674-3.731,1.213-5.4-2.179-7.6-.724-.471-1.475-.9-2.312-1.409,10.9-3,19.99.771,25.254,12.487-5.061-4.877-9.312-11.118-18.1-10.255,1.669,3.359,2.8,6.651,6.679,7.976a36.363,36.363,0,0,1,9.6,5.278,4.755,4.755,0,0,0,2.328,1.258,24.382,24.382,0,0,1,3.277.219c2.451.059,4.9.182,6.863-1.755,1.485-1.469,1.483-1.774-.248-2.821-.466-.282-1.137-.473-.847-1.24a1.421,1.421,0,0,1,1.365-.853,15.915,15.915,0,0,0,4.367-.411,12.036,12.036,0,0,1-5.089.252c-.8-.115-1.7-.575-1.641-1.516.059-.925,1.051-.857,1.743-.937a21.489,21.489,0,0,0,5.2-1.117c-3.555-.751-7.119.853-10.836.9C915.347,466.88,914.412,466.78,913.944,465.773Z" transform="translate(-841.914 -210.314)"/>
  <path id="Path_1190" data-name="Path 1190" class="cls-11" d="M971.241,443.723c4.437-6.515,2.2-10.367-6.755-11.268,4.627-5.705,4.014-11.961,2.205-18.372a2.277,2.277,0,0,0-2.615-1.89,17.055,17.055,0,0,1-8.573-2.373c6.538.049,6.507.051,6.055-6.057a47.459,47.459,0,0,1-.01-5.145c.039-1.131.237-2.256.383-3.539a74.094,74.094,0,0,0,11.4,3.956c.605.143,1.534.851,1.733-.4.213-1.34.532-2.78-.219-4.022-.266-.44-.857.131-1.254.391-.835.542-.808,1.655-1.508,2.713a14.885,14.885,0,0,1-.8-5.341c.027-2.207-.816-3.2-3.089-2.858a2.7,2.7,0,0,1-1.909-.5h6.041l.006-.4-4.365-.309c1.193-1.129,2.676-.444,3.752-1.162l-3.672-.219c2.555.053,3.336-1.381,3.735-3.7.442-2.582,1.857-2.866,3.629-.914,3.087,3.4,4.284,7.653,5.059,12.02,1.759,9.913,1.178,19.868.256,29.81-.432,4.627-.716,9.291-2.322,13.729C977.059,441.6,974.653,443.578,971.241,443.723Z" transform="translate(-766.572 -271.388)"/>
  <path id="Path_1191" data-name="Path 1191" class="cls-12" d="M922.407,416.7c-2.152,5.454-.237,10.775.863,16.6-3.652-2.895-7.111-3.83-10.957-1.635-1.139.648-1.268-.6-1.3-1.1-.115-1.837-1.254-1.843-2.655-1.956-1.767-.143-3.682.358-5.276-1.24H912.6c-1.684-.655-3.005-2.209-4.948-1.477.063-.37.039-.585.119-.636.968-.61,3.179.634,2.858-1.878-.3-2.318,1.97-5.437-2.367-6.507-2.79-.687-5.781-1.362-7.692-3.938-.573-.773-1.15-.274-1.718-.025a14.1,14.1,0,0,0-6.89,6.9c1.188-.082,2.129-.168,3.075-.2,4.185-.166,4.188-.162,5.3-3.756.468.018.474.405.446.691-.215,2.3.671,3.621,3.066,4.071a9.058,9.058,0,0,1,4.327,2.524,30.379,30.379,0,0,0-17.345-.027c-.921.241-1.407.264-1.72-.908-1.319-4.948-4.772-8.07-9.267-10.093-1.4-.63-1.731-1.168-.8-2.42a5.371,5.371,0,0,0,.667-1.569c1.166-3.637,1.056-3.821-2.78-4.419,1.467-.7,2.811-.17,4.421-.372-1.09-.937-.229-3.05-2.651-2.886a17.759,17.759,0,0,1-4.128-.673l.008-.6h6.059l0-.614h-8.336a9.546,9.546,0,0,1,5.656-1.013c2.095.1,2.79-.632,2.443-2.62a20.357,20.357,0,0,1-.141-2.121c1.722.462,2.236,2.222,3.619,3.208a41.124,41.124,0,0,0,.765-10.593,3.553,3.553,0,0,1,1.219-3.224,21.39,21.39,0,0,0,5.174-7.008c2.821,5.3,5.194,10.48,8.559,15.083.614.837.254,1.745.162,2.612a44.824,44.824,0,0,0,.605,14.631c.931,4.171,3.4,6.348,7.708,6.939,4.149.569,8.293.628,12.448.788C921.365,415.438,922.4,415.407,922.407,416.7Z" transform="translate(-853.582 -277.516)"/>
  <path id="Path_1192" data-name="Path 1192" class="cls-13" d="M1008.862,448.907c-1.813.663-3.537,1.176-5.155,1.917a10.347,10.347,0,0,0-4.991,4.556c-4.752,9.042-2.625,21.109,8.369,24.241.986.28,1.045.865,1.148,1.583a13.873,13.873,0,0,0,5.108,9.179c.485.393,1.1.626.616,1.54-3.091,5.859-6.64,11.276-12.927,14.207a5.064,5.064,0,0,1-.99.094c3.05-2.289,5.108-4.856,5.9-8.238,2.43-10.361-1.475-18.256-11.587-23.617-5-2.647-8.481-5.975-9.7-11.456-.352-1.587-1.272-1.1-2.156-1.054-9.3.454-17.855-1.469-25.01-7.837a34.188,34.188,0,0,1-8.6-12.358c-1.217-2.833,1.411-2.089,2.357-2.8,1.675-1.254,1.3.7,1.63,1.3.618,1.137.941,2.434,1.557,3.574,2.622,4.846,6.82,6.632,12.153,5.243.918-.239,1.827-.524,3.085-.888-1.127,2.545-1.289,4.8-.108,7.039a7.959,7.959,0,0,0,4.087,3.709,9.394,9.394,0,0,0,11.458-4.114c1.569,1.551,1.221,3.623,1.591,5.439a5.305,5.305,0,0,0,1.08,2.915c1.725,1.8,3.93,1.4,4.863-.9,1.557-3.834.462-7.485-2.614-8.727C993.874,448.148,1002.744,445.928,1008.862,448.907Z" transform="translate(-773.823 -211.357)"/>
  <path id="Path_1193" data-name="Path 1193" class="cls-14" d="M998.941,502.054c4.01-12.2.618-21.674-10.415-28.461-5.5-3.382-11.249-6.3-17.75-7.268-2.627-.391-5.11-.029-6.792,2.326-1.765,2.469-1.068,4.951.2,7.383,2.193,4.224,5.767,6.483,10.388,7.334a17.329,17.329,0,0,1-11.644-1.71c-7.05-3.543-12.244-9.148-16.766-15.437a8.315,8.315,0,0,1-1.35-4.889q-.012-10.522.029-21.046c1.514-.07,1.209.628,1.321.99,2.254,7.2,5,14.16,9.881,20.066,1.5,1.819,2.77,2.784,5.673,1.825,7.428-2.453,14.727-.532,21.619,2.522a36.559,36.559,0,0,1,17.19,15.5c3.259,5.7,3.077,11.887.773,17.979A5.7,5.7,0,0,1,998.941,502.054Z" transform="translate(-777.759 -209.45)"/>
  <path id="Path_1194" data-name="Path 1194" class="cls-15" d="M954.692,489.73a144.581,144.581,0,0,0-8.649,43.863,72,72,0,0,0-24.828-12.89c-9.15-2.535-18.28-3.038-27.541.667a44.462,44.462,0,0,0,2.406-3.913c1.037-2.168,1.313-4.425-.256-6.489a4.122,4.122,0,0,0-4.547-1.626,6.254,6.254,0,0,0-4.791,5.014,13.7,13.7,0,0,0-.186,1.53c-2.608-2.166-5.7-3.067-8.522-4.492-5.263-2.659-9.181-6.458-10.818-12.7,4.646,2.113,9.281,3.218,14.224,2.524a24.125,24.125,0,0,0,12.88-6.356c-3.416,6.593-10.408,9.889-20.453,9.971,4.721,1.995,9.363,4.367,14.807,2.647a14.347,14.347,0,0,1,3.126-.54c5.685-.456,8.048,1.735,8.064,7.418,0,.648,0,1.295,0,2.17,3.25-.446,6.4-1.113,9.625-1.25a40.246,40.246,0,0,1,23.513,6.221c5.069,3.154,7.706,2.307,9.881-3.39,3.314-8.682,6.393-17.456,10.378-25.867A5.244,5.244,0,0,1,954.692,489.73Z" transform="translate(-859.161 -157.742)"/>
  <path id="Path_1195" data-name="Path 1195" class="cls-16" d="M965.065,386.649a46.972,46.972,0,0,0,15.31-12.438c.587,4.05,1.182,7.675,1.628,11.317,1.982,16.187,1.927,32.291-2.15,48.21a79.773,79.773,0,0,1-4.7,13.368c-.483,1.056-.892,1.911-2.293,2.181-1.724.335-2.852,1.8-4.328,3.658,1.072-4,1.974-7.385,2.882-10.764.063-.233.166-.659.243-.657,3.721.074,1.839-3.259,2.876-4.811a8.322,8.322,0,0,0,.706-2.584c.113-.45.434-1.1-.223-1.236-2.363-.471-1.407-2.089-1.266-3.422.145-1.381.354-2.755.493-4.136.147-1.471.074-3.052,2.369-2.6.847.166.781-.6.841-1.156.254-2.357.424-4.728.8-7.064.235-1.467-.753-1.489-1.573-1.51-1.516-.039-1.906-.743-1.845-2.152a29.164,29.164,0,0,0-.239-4.157c-.149-1.463-.321-2.835,1.843-2.764,1.013.033,1.121-.753,1.1-1.54q-.1-3.922-.215-7.841c-.035-1.189-.52-1.72-1.833-1.6-2.1.2-3.568-.534-3.78-2.95-.227-2.594-1.344-3.985-4.237-2.925A2.406,2.406,0,0,1,965.065,386.649Z" transform="translate(-756.574 -278.537)"/>
  <path id="Path_1196" data-name="Path 1196" class="cls-17" d="M924.892,412.352c2.811-4.93,3.038-10.063,1.817-15.856-3.165,2.974-6.372,5.339-7.166,9.633-.475,2.563-1.26,5.061-1.291,7.712-.016,1.305.436,1.608,1.682,1.675,4.779.256,8.755-.612,10.341-5.981a8.566,8.566,0,0,1,2.766-4,63.907,63.907,0,0,0-2.993,15.969c-1.285-2-2.4-3.684-4.811-3.57a8.483,8.483,0,0,0-5.321,2.166c-.579.5-.869.929-1.681.076-3.285-3.449-6.822-2.725-9.04,1.9-4.607-4.187-6.082-9.257-4.889-15.212.113-.561.278-1.109.395-1.669.471-2.265,1.334-3.57,4.081-4.143a22.91,22.91,0,0,0,13.653-8.743c.874,1.158.239,2.473.442,3.842,3.077-.937,5.155-2.733,5.994-5.847C932.135,394.729,929.924,407.363,924.892,412.352Z" transform="translate(-820.523 -261.701)"/>
  <path id="Path_1197" data-name="Path 1197" class="cls-17" d="M892.225,376.112a7.765,7.765,0,0,0,2.539-2.428c5.826,2.713,11.274,6.119,16.862,9.265,11.423,6.43,22.8,12.943,34.191,19.426.413.235.81.5,1.43.882-3.351,1.53-6.063,2.172-9.547.035-14.571-8.946-29.376-17.507-44.092-26.215C893.127,376.789,892.685,376.435,892.225,376.112Z" transform="translate(-832.741 -279.088)"/>
  <path id="Path_1198" data-name="Path 1198" class="cls-18" d="M937.636,518.461a15.082,15.082,0,0,1,9.13,8.839,16.427,16.427,0,0,1,1.436,7.634c-.174,2.081.759,2.459,2.526,2.514,4.736.147,8.944-1.45,13.088-3.6-3.056-3.717-7.647-6.667-5.716-12.548a15.226,15.226,0,0,0,9.445,11.456c1.006.417.693.847.215,1.414a14.456,14.456,0,0,1-3.778,3.081,64.1,64.1,0,0,1-13.272,5.525,1.97,1.97,0,0,1-1.99-.325c-2.862-2.037-4.9-3.971-4.558-8.271.393-4.936-2.365-9.373-5.051-13.522C938.73,520.071,938.333,519.5,937.636,518.461Z" transform="translate(-785.256 -127.699)"/>
  <path id="Path_1199" data-name="Path 1199" class="cls-18" d="M912.674,532.6c5.462-2.228,9.091-5.924,9.94-11.92,2.344,2.917.992,6.1-5.38,12.511,4.357,2.455,8.848,3.956,13.874,3.647,1.677-.1,1.626-1.088,1.665-2.322.186-5.887,1.935-11.073,6.9-14.719a8.926,8.926,0,0,1,3.6-1.733,58.253,58.253,0,0,0-3.928,6.591c-1.886,4.052-3.245,8.211-2.5,12.755.135.818,0,1.2-.712,1.518a3.309,3.309,0,0,0-1.207.82c-2.432,3.028-5.231,2.6-8.391,1.238a75.566,75.566,0,0,1-9.527-4.368A11.16,11.16,0,0,1,912.674,532.6Z" transform="translate(-811.358 -128.117)"/>
  <path id="Path_1200" data-name="Path 1200" class="cls-2" d="M912.256,361.825c.646-.037,1.418.141,1.919-.149,2.267-1.3,3.693-.213,4.979,1.553-.258.792-1.5.178-1.645,1.129,2.05,1.624,4.459,1.628,7.064,1.4-.663,1.461-2.32.516-2.913,1.741,4.856,8.279,9.8,16.7,14.737,25.123a3.1,3.1,0,0,1-2.279,4.456c-.681.065-.781-.483-1-.861q-7.223-12.75-14.412-25.52c-.188-.331-.9-.773-.108-1.129,1.328-.6.487-.81-.156-.968a2.532,2.532,0,0,1-1.933-1.97c-.19-2.514-2.107-3-4.044-3.371-1.009-.194-2.093,0-3.019-.606C910.253,361.934,911.613,363.094,912.256,361.825Z" transform="translate(-814.73 -292.244)"/>
  <path id="Path_1201" data-name="Path 1201" class="cls-19" d="M908.3,437.75c-2.71,4.914-2.179,9.156,2.121,12.736,3.854,3.208,8.046,4.026,12.749,1.788a6.881,6.881,0,0,1-4.537,3.568c-4.568,1.295-8.923.953-12.671-2.2-1.166-.982-1.919-.771-2.942-.031a10.028,10.028,0,0,0-4.511,7.366C896.855,452.278,900.3,441.778,908.3,437.75Z" transform="translate(-826.594 -212.096)"/>
  <path id="Path_1202" data-name="Path 1202" class="cls-20" d="M967.062,357.3c1.231,1.252,1.193,2.925,1.485,4.488-5.439,9.754-10.812,19.546-16.37,29.231-1.354,2.363-4.368,2.207-6.422,3.371-.585-.387-.331-.685-.184-.935q10.5-17.813,21.019-35.615A3.769,3.769,0,0,1,967.062,357.3Z" transform="translate(-777.148 -296.223)"/>
  <path id="Path_1203" data-name="Path 1203" class="cls-21" d="M942.452,371.841c.755,1.947.513,3.854.385,5.759-.047.714-.065,1.416.951,1.174a3.072,3.072,0,0,1,3.793,3.956c-.264,1.043-.626,2.152.381,3.138,1.195,1.17-.07,2.035-.7,2.618-.755.7-1.233,2.22-2.86,1.5-2.117-.933-3.009-.509-3.287,1.684-.247,1.95-1.491,3.856-.311,5.922.186.327-.074.957-.217,1.418-.583,1.868-2.438,3.156-3.621,2.4-1.657-1.068-1.367-2.7-.62-4.136.591-1.142,1.608-2.058,2.24-3.185a16.7,16.7,0,0,0,1.068-2.981c.47-1.42.573-2.346-1.426-1.4-1.52.722-2.072-.835-2.886-1.606s-1.148-1.532.168-2.305a1.052,1.052,0,0,0-.053-1.686c-2.1-.642-1.068-1.952-.554-2.831.5-.857.532-2.657,2.684-1.538,1.338.7,4.124-1.966,4.351-3.682C942.127,374.656,942.283,373.248,942.452,371.841Z" transform="translate(-788.855 -281.015)"/>
  <path id="Path_1204" data-name="Path 1204" class="cls-22" d="M897.76,398.159l-1.9-1.463c2.78-1,6.016-.9,8.387-3.776,1.021,3.709,2.96,6.17,6.757,6.724,1.405.2.356,1.113.147,1.645-1.133,2.874-2.381,5.707-3.463,8.6a42.18,42.18,0,0,0-1.127,4.462c1.383-.295,2.594-.855,4.167-.245-2.068.777-3.821,1.667-4.94,4.067-2.682-7.569-2.858-14.864-2.119-22.552C901.745,396.991,899.6,397.187,897.76,398.159Z" transform="translate(-828.936 -258.974)"/>
  <path id="Path_1205" data-name="Path 1205" class="cls-23" d="M936.839,427.565a19.593,19.593,0,0,0-6.571,4.973,32.165,32.165,0,0,0-4.171,6.818,53.971,53.971,0,0,0,.413-11.042,98.809,98.809,0,0,0-2.185-11.075C928.059,421.6,931.686,425.278,936.839,427.565Z" transform="translate(-799.174 -233.544)"/>
  <path id="Path_1206" data-name="Path 1206" class="cls-24" d="M863.147,398.326c8.639-.769,16.938-.933,25.235-1.117,1.63-.037,3.267.014,4.889-.123,1.7-.143,2.252.99,2.289,2.216.045,1.5-1.324.837-2.038.816-9.289-.284-18.577-.632-27.862-.978A3.364,3.364,0,0,1,863.147,398.326Z" transform="translate(-863.147 -254.63)"/>
  <path id="Path_1207" data-name="Path 1207" class="cls-25" d="M942.3,425.1a8.012,8.012,0,0,1-5.642-.487c4.378-1.252,7.027-4.934,10.654-7.234-4.973,6.462-4.323,13.332-1.72,20.434-2.848-3.864-5.689-7.675-10.255-10.22,1.436-.425,2.293.233,3.165.624s1.708.929,2.725,1.5Z" transform="translate(-787.665 -233.392)"/>
  <path id="Path_1208" data-name="Path 1208" class="cls-26" d="M951.988,413.805c4.682-5.2,8.291-10.245,7.87-17.155,1.409,2.434,1.037,6.939-.892,11.55,5.3,1.011,6.026-3.2,7.463-7.1.321,2.7-.479,4.691-1.092,6.794l4.235,1.025c-2.925.561-5.851.616-8.674,1.414A80.826,80.826,0,0,0,951.988,413.805Z" transform="translate(-770.248 -255.073)"/>
  <path id="Path_1209" data-name="Path 1209" class="cls-27" d="M991.26,392.714c-.749-1.1.769-1.712.585-2.692,4.089-2.506,6.976-6.348,10.5-9.478.745-.663,1.52-2.158,2.465-1.5,1.015.7.1,2.107-.276,3.14-1.323,3.611-3.813,6.45-6.364,9.2a46.574,46.574,0,0,0-4.294,5.288c-.16-.849-.972-.706-1.5-.99,1.029-2.224,2.921-3.754,4.486-5.538a36.972,36.972,0,0,0,5.5-7.375c-2.784,2.839-5.517,5.7-8.43,8.371A4.685,4.685,0,0,1,991.26,392.714Z" transform="translate(-729.402 -273.656)"/>
  <path id="Path_1210" data-name="Path 1210" class="cls-28" d="M992.433,399.889c.812-2.346,2.226-2.823,4.251-2.7,6.342.378,12.706.37,19.041,1.287C1008.072,399.7,1000.335,399.508,992.433,399.889Z" transform="translate(-727.956 -254.532)"/>
  <path id="Path_1211" data-name="Path 1211" class="cls-16" d="M944.272,430.408c-1.371-.331-2.663-.491-1.6-2.326a11.32,11.32,0,0,1,2.766-3.635c.4-.3.89-1.041,1.42-.452.507.563,1.233,1.612.757,2.119a14.848,14.848,0,0,0-2.872,4.138C944.681,430.386,944.336,430.39,944.272,430.408Z" transform="translate(-780.4 -226.711)"/>
  <path id="Path_1212" data-name="Path 1212" class="cls-29" d="M923.907,430.4c-.773.156-.835-.571-1.041-1.029a5.458,5.458,0,0,0-1.792-2.535c-1.479-.943-.474-1.976.006-2.641.763-1.058,1.373.16,1.9.567a10.169,10.169,0,0,1,2.506,3.519C926.452,430.121,924.9,430.008,923.907,430.4Z" transform="translate(-803.386 -226.707)"/>
  <path id="Path_1213" data-name="Path 1213" class="cls-1" d="M910.274,361.9a15.528,15.528,0,0,1,4.584.561c1.567.581,2.907,1.367,2.479,3.416-1.761-3.989-5.746-2.561-8.678-3.717C909.053,361.662,909.679,361.852,910.274,361.9Z" transform="translate(-815.555 -291.489)"/>
  <path id="Path_1214" data-name="Path 1214" class="cls-30" d="M913.1,431.737a7.906,7.906,0,0,1,4.562-.2c-1.618.984-3.115.6-4.55.622C913.115,432.017,913.111,431.876,913.1,431.737Z" transform="translate(-810.911 -218.863)"/>
  <path id="Path_1215" data-name="Path 1215" class="cls-31" d="M911.656,357.745l-.464-.828a6.6,6.6,0,0,1,3.874.644A7.251,7.251,0,0,1,911.656,357.745Z" transform="translate(-812.908 -296.677)"/>
  <path id="Path_1216" data-name="Path 1216" class="cls-32" d="M925.177,446.522l-.536-.548a6.1,6.1,0,0,1,1.381-2.97A6.46,6.46,0,0,1,925.177,446.522Z" transform="translate(-798.844 -206.603)"/>
  <path id="Path_1217" data-name="Path 1217" class="cls-33" d="M938.652,403.148c-.059-1.193-1.013-1.632-.489-2.455.26-.411.405-.945.9-1.078.569-.151.943.3,1.135.736.444,1,1.5,2.6.673,3.011-1.27.622-2.289,3.355-4.37,1.207-.724-.747-1.107-.147-1.483.421a11.929,11.929,0,0,0-1.941,5.48c-.084.828-.078,1.365,1.045,1.432,1.094.067,2.667,3.919,1.829,4.57-1.839,1.426-.25,2.07.385,3.028.614.929,2.543,1.248,2.1,2.342-.589,1.454-2.408.867-3.75.943a11.966,11.966,0,0,1-5.838-1.573c-1.225-.581-2.813-1.123-.779-2.7a.69.69,0,0,0,.065-1.07c-.816-1.015-1.614-2.044-2.434-3.058a.812.812,0,0,0-1.062-.327c-2.7,1.377-2.535-.771-2.68-2.285a18.428,18.428,0,0,1,.184-3.414c.1-1.08.513-1.677,1.735-1.064.591.3,1.514.906,1.731-.284.276-1.5,2.909-2.224,1.571-4.063-1.009-1.387-.43-1.954.6-2.664a10.761,10.761,0,0,1,3.568-1.555c1.1-.272,1.894-.356,2.289,1.195C934.227,402.242,936.821,401.72,938.652,403.148Z" transform="translate(-801.68 -253.059)"/>
  <path id="Path_1218" data-name="Path 1218" class="cls-33" d="M937.218,403c2.309-.843,4.916-.955,5.587-3.834.207-.88.843-.738,1.545-.54a10.255,10.255,0,0,1,3.486,1.706c.775.593,1.242,1.131.379,2.148-1.749,2.052,1.168,2.729,1.415,4.269.225,1.4,1.272.5,1.9.258.884-.333,1.33-.213,1.51.775a11.082,11.082,0,0,1-.063,5.56c-.2.6-.335,1.356-1.3.894-3.038-1.45-3.036,1.9-4.4,2.972-1.283,1.011.961,1.491,1,2.676-3.351,2.177-6.951,3.445-11.13,2.35.084-1.326,1.195-1.62,1.831-2.3.933-.994,2.338-1.892.059-2.964-1-.473-.28-1.211.035-1.6.726-.9-.3-3.03,1.863-2.831,1.573.143,1.743-.6,1.622-1.872a13.4,13.4,0,0,0-1.281-4.433c-.632-1.352-1.356-2.025-2.61-.632-.679.751-1.375.577-1.753-.188-.509-1.031-2.927-.659-1.968-2.719.137-.292.164-.638.3-.931.374-.82.536-2.291,1.753-1.727C938.068,400.532,938.474,401.8,937.218,403Z" transform="translate(-788.303 -253.164)"/>
  <path id="Path_1219" data-name="Path 1219" class="cls-34" d="M935.816,402.176a5.817,5.817,0,0,1,5.924,5.849A5.9,5.9,0,0,1,935.906,414a5.911,5.911,0,1,1-.09-11.822Z" transform="translate(-793.313 -249.295)"/>
  <path id="Path_1220" data-name="Path 1220" class="cls-35" d="M954.265,492.014a17.714,17.714,0,0,1-.4,3.879c-.7,2.416-1.833,4.4-4.586,4.754-2.4.313-5.108-1.385-6.28-3.821-1.774-3.688.254-12.174,3.51-14.69,1.659-1.281,3.367-1.08,4.906.753C953.618,485.515,954.191,488.7,954.265,492.014Z" transform="translate(-780.338 -166.54)"/>
  <path id="Path_1221" data-name="Path 1221" class="cls-36" d="M945.926,492.418l1.792,3.06c1.217-.485,1.123-1.808,2.119-2.708,0,2.4.143,4.658-.025,6.9-.675,8.962-1.44,17.918-2.189,26.876a3.145,3.145,0,0,0,.826,2.848,5.937,5.937,0,0,1,.168,7.45,3.039,3.039,0,0,1-5.012-.016c-1.526-1.845-1.4-5.893.462-7.424a2.956,2.956,0,0,0,1.129-2.492c.231-5.716.577-11.431.7-17.151C946.02,504.129,945.926,498.492,945.926,492.418Z" transform="translate(-780.112 -154.931)"/>
  <path id="Path_1223" data-name="Path 1223" class="cls-37" d="M914.969,466.524h-6.221C911.043,465.46,912.747,464.912,914.969,466.524Z" transform="translate(-815.463 -183.068)"/>
  <path id="Path_1224" data-name="Path 1224" class="cls-35" d="M917.311,432.465a145.085,145.085,0,0,0,63.927-.133c.129,2.209-.352,4.9.354,7.508.141.526.139.941-.554,1.07-4.623.861-9.24,1.739-13.894,2.618-.119-4.644-.119-4.642-4.65-4.159a14.47,14.47,0,0,1-1.708.121c-1.866-.022-2.944.716-2.659,2.743.237,1.684-.561,2.027-2.091,2-4.648-.086-9.3-.072-13.949-.008-1.338.02-1.949-.239-1.671-1.747.421-2.287-.565-3.279-2.942-3.085a14.5,14.5,0,0,1-4.14-.272c-1.835-.391-2.43.321-2.152,1.99.346,2.072-.372,2.414-2.33,1.943-3.482-.839-7.033-1.385-10.56-2.04-.689-.127-1.446.043-1.348-1.166C917.155,437.274,917.208,434.685,917.311,432.465Z" transform="translate(-806.904 -217.762)"/>
  <path id="Path_1225" data-name="Path 1225" class="cls-38" d="M935.8,433.286c-1.385,0-2.774-.068-4.153.014-2.154.129-2.074-.882-1.319-2.357a6,6,0,0,1,6.063-3.242,5.875,5.875,0,0,1,5.036,4.038c.528,1.334.145,1.782-1.231,1.72-1.463-.065-2.931-.014-4.4-.014Z" transform="translate(-793.407 -222.646)"/>
  <path id="Path_1226" data-name="Path 1226" class="cls-36" d="M918.736,492.441l1.727,3.044c1.295-.532,1.315-2.015,2.485-2.886,0,6.988-.068,13.733.025,20.473.061,4.656.346,9.308.521,13.962a2.487,2.487,0,0,0,.894,2.113,6.031,6.031,0,0,1,1.217,6.914,3.467,3.467,0,0,1-3.1,2.06,3.045,3.045,0,0,1-2.913-2.23c-.908-2.394-1.252-4.844.927-6.777.882-.784.614-1.542.542-2.418-.884-10.91-2.019-21.8-2.326-32.751C918.73,493.658,918.736,493.374,918.736,492.441Z" transform="translate(-805.021 -154.907)"/>
  <path id="Path_1227" data-name="Path 1227" class="cls-35" d="M929.93,511.7c-1.139.487-2.332.945-3.58,0Z" transform="translate(-797.057 -134.769)"/>
  <path id="Path_1228" data-name="Path 1228" class="cls-35" d="M944.9,464.686a15.948,15.948,0,0,1-3.979,10.983c-4.122,4.633-9.975,3.457-12.1-2.365-2.054-5.63-.106-13.448,4.306-17.3a6.848,6.848,0,0,1,9.647,1.066C944.277,459.079,944.889,461.286,944.9,464.686Z" transform="translate(-795.324 -194.592)"/>
  <path id="Path_1229" data-name="Path 1229" class="cls-36" d="M982.384,394c-1.174-.078-3.33.516-3.985-1.5-.687-2.113,1.043-3.506,2.678-4.441,3.49-2,7.137-3.514,11.341-2.535,1.156.27,2.3.475,2.606,1.8a2.881,2.881,0,0,1-1.338,2.954A17.594,17.594,0,0,1,982.384,394Z" transform="translate(-742.793 -267.035)"/>
  <path id="Path_1230" data-name="Path 1230" class="cls-39" d="M999.132,378.171a3.077,3.077,0,0,1-.364,2.884c-2.23,3.607-4.562,7.152-6.837,10.732-.91,1.436-1.561.356-2.291-.18s-1.6-.88-.573-2.019C992.4,385.9,995.645,382.14,999.132,378.171Z" transform="translate(-731.964 -274.396)"/>
  <path id="Path_1231" data-name="Path 1231" class="cls-39" d="M991.335,391.81l12.607-12.067c-2.457,6.526-7.25,10.572-11.491,15.032C991.215,394.114,990.509,393.251,991.335,391.81Z" transform="translate(-729.477 -272.752)"/>
  <path id="Path_1232" data-name="Path 1232" class="cls-40" d="M993.135,397.571c-1.684-3.692,2.156-5.118,2.575-7.827.076-.495,1.332-.276,2.05-.262a8.872,8.872,0,0,1,5.734,2.586C999.3,392.672,995.555,393.726,993.135,397.571Z" transform="translate(-727.666 -262.631)"/>
  <path id="Path_1233" data-name="Path 1233" class="cls-41" d="M986.8,386.149l6.785-5.356C991.231,385.985,989.29,387.482,986.8,386.149Z" transform="translate(-733.851 -271.654)"/>
  <path id="Path_1234" data-name="Path 1234" class="cls-42" d="M936.779,379.055c-1.041.63-1.078,1.917-2.42,1.692-3.893-.657-5.961-1.757-6.7-3.713C930.794,376.624,933.554,377.756,936.779,379.055Z" transform="translate(-795.683 -275.675)"/>
  <path id="Path_1235" data-name="Path 1235" class="cls-43" d="M931.043,379.731c1.056,1.988.178,4.126-.262,6.239l-.432-6.129Z" transform="translate(-792.875 -272.765)"/>
  <path id="Path_1236" data-name="Path 1236" class="cls-44" d="M965.682,480.2a3.885,3.885,0,0,1,4.343,0Z" transform="translate(-755.929 -168.407)"/>
  <path id="Path_1239" data-name="Path 1239" class="cls-45" d="M882.159,378.118c0,3.658-.008,7.313,0,10.971a14.02,14.02,0,0,1-.845,4.539,1.182,1.182,0,0,1-1.262.927c-.734-.047-.569-.655-.575-1.1-.057-4.071-.149-8.14-.129-12.211C879.361,379.577,881.191,379.194,882.159,378.118Z" transform="translate(-846.204 -274.452)"/>
  <path id="Path_1240" data-name="Path 1240" class="cls-46" d="M879.452,394.688c0-.966-.039-1.534.008-2.1.106-1.311-1.009-2.966.368-3.872a9.219,9.219,0,0,1,6.02-1.618c1.845.19,1.9,1.9,2.183,3.126.313,1.356-1.1.757-1.71.949A30.335,30.335,0,0,0,879.452,394.688Z" transform="translate(-846.429 -265.103)"/>
  <path id="Path_1241" data-name="Path 1241" class="cls-47" d="M882.331,377.567c2.79,4.983,2.209,10.318,1.731,15.619-.082.914-.43,1.988-1.843,1.727-1.745-.321-.53-1.371-.446-2.027C882.425,387.791,881.864,382.669,882.331,377.567Z" transform="translate(-844.183 -275.028)"/>
  <path id="Path_1242" data-name="Path 1242" class="cls-48" d="M881.111,399c-.309-.869-.558-1.551-.794-2.236-1.321-3.834-.538-5.237,3.451-6.311.775-.209,1.461-.239,1.958.444a1.659,1.659,0,0,1,.16,2A23.206,23.206,0,0,1,881.111,399Z" transform="translate(-845.811 -261.687)"/>
  <path id="Path_1243" data-name="Path 1243" class="cls-49" d="M880.315,399.95c-3.218-1-3.84-2.954-2.974-5.812a24.906,24.906,0,0,0,1.021-7.15c.939.495,1.471,1.056,1.293,2.052A26.3,26.3,0,0,0,880.315,399.95Z" transform="translate(-848.675 -265.175)"/>
  <path id="Path_1244" data-name="Path 1244" class="cls-50" d="M883.817,381.252c1.868,2.426,2.162,4.84,1.481,11.323a1.924,1.924,0,0,1-1.9-2.246A70.509,70.509,0,0,1,883.817,381.252Z" transform="translate(-841.967 -271.174)"/>
  <path id="Path_1245" data-name="Path 1245" class="cls-50" d="M883.411,397.885l3.2-8.451c.17,1.262.252,1.96.362,2.653.221,1.405,1.616,3.107.863,4.018C886.972,397.152,885.023,397.3,883.411,397.885Z" transform="translate(-841.957 -262.619)"/>
  <path id="Path_1247" data-name="Path 1247" class="cls-51" d="M943.911,377.037c.012,1.16-.237,1.939-1.459,2.189-1.581.325-3.15.734-4.695,1.2a1.346,1.346,0,0,1-1.774-.828c-.442-1,.6-.955,1.084-1.148A16.692,16.692,0,0,1,943.911,377.037Z" transform="translate(-787.094 -275.59)"/>
  <path id="Path_1248" data-name="Path 1248" class="cls-52" d="M937.648,385.365c-.155.708-.237,1.542-1.076,1.692-.78.139-.9-.532-.777-1.113.157-.741.166-1.729,1.266-1.7C937.693,384.257,937.576,384.921,937.648,385.365Z" transform="translate(-787.225 -268.048)"/>
  <path id="Path_1249" data-name="Path 1249" class="cls-53" d="M905.384,398.283l-4.408,10.335c-1.133-4.453-.538-8.627-.781-13.281A9.138,9.138,0,0,0,905.384,398.283Z" transform="translate(-824.408 -256.446)"/>
  <path id="Path_1250" data-name="Path 1250" class="cls-46" d="M926.076,421.634c3.269,2.884,3.269,2.884,0,7.019Z" transform="translate(-797.344 -228.948)"/>
  <path id="Path_1251" data-name="Path 1251" class="cls-54" d="M947.052,513.355c.033,1.645-.532,2.784-1.98,2.841-1.362.055-1.688-1.16-1.592-2.279.119-1.334.495-2.8,2.16-2.755C947.031,511.2,947.013,512.523,947.052,513.355Z" transform="translate(-779.161 -135.332)"/>
  <path id="Path_1252" data-name="Path 1252" class="cls-55" d="M923.365,514.022c-.1,1.207-.427,2.305-1.761,2.189-1.465-.127-1.935-1.362-1.89-2.655.037-1.082.053-2.565,1.659-2.381C922.9,511.348,923.191,512.77,923.365,514.022Z" transform="translate(-804 -135.335)"/>
</svg>
