<svg xmlns="http://www.w3.org/2000/svg" width="336.083" height="291.792" viewBox="0 0 336.083 291.792">
  <g id="SignUpIllustration" transform="translate(-130.958 -313.208)">
    <ellipse id="Shadow" cx="66.5" cy="17" rx="66.5" ry="17" transform="translate(165 571)" fill="#e44108"/>
    <g id="Girl" transform="translate(130.958 313.209)">
      <path id="Path_1095" data-name="Path 1095" d="M359.051,751.016l.684,14.409h0a9.193,9.193,0,0,1-8.747,9.618l-.3.014-1.119-23.591Z" transform="translate(-276.096 -499.555)" fill="#2f2e41"/>
      <path id="Path_1096" data-name="Path 1096" d="M829.134,460.65a165.613,165.613,0,0,1-26.58,38.067c-.245.265-.492.523-.741.785l-26.094-12.353c.16-.265.335-.563.523-.888,11.209-19.178,78.872-136.167,76.734-162.663C853.225,325.783,861.243,398.053,829.134,460.65Z" transform="translate(-541.322 -233.539)" fill="#e6e6e6"/>
      <path id="Path_1097" data-name="Path 1097" d="M826.01,663.359c-.365.208-.74.411-1.117.607L805.318,654.7c.274-.194.592-.424.959-.682,6-4.306,23.83-17.225,41.279-31.109,18.752-14.92,37.064-30.951,39.784-38.6C886.787,586.06,869.624,639.4,826.01,663.359Z" transform="translate(-559.744 -395.797)" fill="#e6e6e6"/>
      <circle id="Ellipse_1" data-name="Ellipse 1" cx="30.21" cy="30.21" r="30.21" transform="translate(2.353 214.508)" fill="#13499f"/>
      <path id="Path_1098" data-name="Path 1098" d="M226.738,699.586h-24.2a4.038,4.038,0,0,0-4.034,4.034v17.287a4.038,4.038,0,0,0,4.034,4.034h24.2a4.038,4.038,0,0,0,4.034-4.034V703.62a4.038,4.038,0,0,0-4.034-4.034Zm0,2.3a1.718,1.718,0,0,1,.428.056l-12.526,9.992-12.453-10.013a1.726,1.726,0,0,1,.349-.036Zm0,20.745h-24.2a1.731,1.731,0,0,1-1.729-1.729V703.775l13.108,10.539a1.153,1.153,0,0,0,1.441,0l13.111-10.459v17.049a1.731,1.731,0,0,1-1.729,1.728Z" transform="translate(-182.075 -467.546)" fill="#fff"/>
      <path id="Path_1099" data-name="Path 1099" d="M487.065,600.506l6.759.056a4.7,4.7,0,0,0,4.682-5.449h0a4.7,4.7,0,0,0-6.724-3.471l-6.375,3.145-21.8,4.862-9.341-9.55-5.365,8.837,12.6,9.738Z" transform="translate(-337.917 -399.404)" fill="#ffb8b8"/>
      <path id="Path_1100" data-name="Path 1100" d="M467.859,702.437l-7.964,1.531c-5.44-17.147-11.334-33.386-11.333-45.945a45.386,45.386,0,0,1-28.486,15.009l1.225-18.991,9.189-4.9,14.064-6.491a10.68,10.68,0,0,1,3.914-.968h0a10.679,10.679,0,0,1,11.107,8.977Z" transform="translate(-319.978 -431.498)" fill="#2f2e41"/>
      <path id="Path_1101" data-name="Path 1101" d="M378.679,680.024l-3.174,2.412a9.83,9.83,0,0,1-9.691,1.263h0c-9.091-6.815-15.55-4.8-21.4,5.482-7.022-7.924-8.754-19.37-2.487-31.211l34.765.766,7.045-2.144Z" transform="translate(-268.932 -440.787)" fill="#2f2e41"/>
      <path id="Path_1102" data-name="Path 1102" d="M376.685,748.426h0A8.877,8.877,0,0,1,366.18,744a35.509,35.509,0,0,1-8.047-11.483,88.868,88.868,0,0,1-4.217-10.831A9.2,9.2,0,0,1,359.9,710q.22-.065.445-.123a13.157,13.157,0,0,1,15.57,8.507L382.451,737a8.877,8.877,0,0,1-5.437,11.315Q376.85,748.375,376.685,748.426Z" transform="translate(-278.516 -473.7)" fill="#2f2e41"/>
      <path id="Path_1103" data-name="Path 1103" d="M362.891,764.878s7.658,8.576,9.189,13.477" transform="translate(-284.387 -508.182)" opacity="0.2"/>
      <path id="Path_1104" data-name="Path 1104" d="M279.441,600.253l-2.563,6.255a4.7,4.7,0,0,0,3.32,6.371h0a4.7,4.7,0,0,0,5.721-4.954l-.552-7.087,3.586-22.048,12.336-5.124-6.211-8.264-13.724,8.084Z" transform="translate(-230.636 -384.033)" fill="#ffb8b8"/>
      <path id="Path_1105" data-name="Path 1105" d="M364.655,583c-8.8,14.783-26.345,20.507-41.372,8.931,2.643-8.685,11.178-32.689,5.664-33.608-11.706,4.909-11.723-6.617-13.913-12.386l26.648-9.8,14.4,3.982,2.951,1.047a9.977,9.977,0,0,1,6.639,9.266C359.622,559.17,355.145,568.49,364.655,583Z" transform="translate(-254.602 -365.819)" fill="#13499f"/>
      <path id="Path_1106" data-name="Path 1106" d="M437.944,580.649l-10.567-8.729,3.522-20.369,14.4,15.315Z" transform="translate(-324.522 -375.412)" fill="#13499f"/>
      <path id="b82a9922-ead1-40af-af3b-f133b244cde7" d="M693.852,150.414h-1.51V109.047A23.941,23.941,0,0,0,668.4,85.106H580.759a23.941,23.941,0,0,0-23.941,23.941v226.94a23.941,23.941,0,0,0,23.941,23.941H668.4a23.941,23.941,0,0,0,23.941-23.941V179.859h1.51Z" transform="translate(-405.083 -85.106)" fill="#181729"/>
      <path id="b2a7827b-2d2c-407d-93be-35e4c67116bc" d="M680.249,101.6h-11.44a8.495,8.495,0,0,1-7.865,11.7H610.736a8.495,8.495,0,0,1-7.865-11.7H592.185a17.88,17.88,0,0,0-17.88,17.88V346.086a17.88,17.88,0,0,0,17.88,17.88h88.062a17.88,17.88,0,0,0,17.88-17.88h0V119.479a17.88,17.88,0,0,0-17.88-17.88h0Z" transform="translate(-415.967 -95.371)" fill="#fff"/>
      <circle id="e6b07811-3d0f-4972-ba4c-46b0c6566e33" cx="9.818" cy="9.818" r="9.818" transform="translate(210.584 236.295)" fill="#e6e6e6"/>
      <path id="Path_1107" data-name="Path 1107" d="M630.408,496.4a1.938,1.938,0,0,0,0,3.843h79.354a1.938,1.938,0,0,0,0-3.843Z" transform="translate(-449.836 -341.09)" fill="#e6e6e6"/>
      <path id="Path_1108" data-name="Path 1108" d="M630.408,616.405a1.938,1.938,0,0,0,0,3.843h79.354a1.938,1.938,0,0,0,0-3.843Z" transform="translate(-449.836 -415.776)" fill="#e6e6e6"/>
      <path id="Path_1109" data-name="Path 1109" d="M630.408,526.932a1.938,1.938,0,0,0,0,3.843h34.146a1.938,1.938,0,0,0,0-3.843Z" transform="translate(-449.836 -360.09)" fill="#e6e6e6"/>
      <path id="Path_1110" data-name="Path 1110" d="M630.408,556.03a1.938,1.938,0,0,0,0,3.843h79.354a1.938,1.938,0,0,0,0-3.843Z" transform="translate(-449.836 -378.199)" fill="#e6e6e6"/>
      <path id="Path_1111" data-name="Path 1111" d="M630.408,586.558a1.938,1.938,0,0,0,0,3.843h34.146a1.938,1.938,0,0,0,0-3.843Z" transform="translate(-449.836 -397.199)" fill="#e6e6e6"/>
      <path id="Path_1112" data-name="Path 1112" d="M669.461,264.733h49.4a2.061,2.061,0,0,1,2.058,2.058v51.446a2.061,2.061,0,0,1-2.058,2.058h-49.4a2.061,2.061,0,0,1-2.058-2.058V266.791A2.061,2.061,0,0,1,669.461,264.733Z" transform="translate(-473.908 -196.902)" fill="#14499e"/>
      <path id="Path_1113" data-name="Path 1113" d="M726.769,379.171a1.4,1.4,0,1,0,0-2.795H698.423a1.4,1.4,0,0,0,0,2.795Z" transform="translate(-492.345 -266.387)" fill="#fff"/>
      <path id="Path_1114" data-name="Path 1114" d="M726.769,357.369a1.4,1.4,0,1,0,0-2.795H698.423a1.4,1.4,0,0,0,0,2.795Z" transform="translate(-492.345 -252.818)" fill="#fff"/>
      <path id="Path_1115" data-name="Path 1115" d="M723.763,292.828a8.8,8.8,0,1,1-8.8,8.8h0A8.806,8.806,0,0,1,723.763,292.828Z" transform="translate(-503.512 -214.388)" fill="#fff"/>
      <path id="Path_1116" data-name="Path 1116" d="M394.687,482.329H368.575a2.028,2.028,0,0,1-2.026-2.026V469.048a15.082,15.082,0,0,1,30.164,0V480.3a2.028,2.028,0,0,1-2.026,2.026Z" transform="translate(-286.664 -314.677)" fill="#2f2e41"/>
      <circle id="Ellipse_2" data-name="Ellipse 2" cx="11.058" cy="11.058" r="11.058" transform="translate(82.843 160.316) rotate(-61.337)" fill="#ffb6b6"/>
      <path id="Path_1117" data-name="Path 1117" d="M412.841,476.851H396.874l-.164-2.292-.819,2.292h-2.459l-.324-4.543-1.623,4.543h-4.757v-.225A11.944,11.944,0,0,1,398.659,464.7h2.251a11.944,11.944,0,0,1,11.931,11.931Z" transform="translate(-299.223 -321.355)" fill="#2f2e41"/>
      <path id="Path_1118" data-name="Path 1118" d="M393.388,499.341a2.071,2.071,0,0,1-.359-.032l-11.692-2.063V477.923h12.87l-.319.372c-4.433,5.17-1.093,13.554,1.292,18.092a2,2,0,0,1-.159,2.119A2.018,2.018,0,0,1,393.388,499.341Z" transform="translate(-295.868 -329.587)" fill="#2f2e41"/>
      <path id="Path_1119" data-name="Path 1119" d="M516.333,787.281h14.426a9.193,9.193,0,0,1,9.193,9.192v.3H516.333Z" transform="translate(-379.886 -522.125)" fill="#2f2e41"/>
      <path id="Path_1120" data-name="Path 1120" d="M490.705,813.649H155.378a.378.378,0,0,1,0-.755H490.705a.378.378,0,1,1,0,.755Z" transform="translate(-155 -538.066)" fill="#cacaca"/>
    </g>
  </g>
</svg>
